<svg width="24" height="24" viewBox="0 0 24 24" fill="none" xmlns="http://www.w3.org/2000/svg">
<path fill-rule="evenodd" clip-rule="evenodd" d="M2.94582 4.61092L9.42957 11.0975C10.8437 12.5089 13.1553 12.5101 14.5706 11.0975L21.0543 4.61092C21.0697 4.59567 21.0815 4.57725 21.0889 4.55694C21.0963 4.53663 21.0991 4.51494 21.0972 4.49341C21.0953 4.47187 21.0887 4.45102 21.0778 4.43233C21.067 4.41364 21.0521 4.39757 21.0344 4.38526C20.3731 3.92406 19.5684 3.65063 18.7017 3.65063H5.29848C4.43171 3.65063 3.6271 3.9241 2.96579 4.38526C2.94802 4.39757 2.93318 4.41364 2.92231 4.43233C2.91145 4.45102 2.90483 4.47187 2.90292 4.49341C2.90102 4.51494 2.90387 4.53663 2.91129 4.55694C2.9187 4.57725 2.93049 4.59567 2.94582 4.61092ZM1.21314 7.73593C1.21261 7.07686 1.37278 6.42759 1.67978 5.84438C1.69049 5.82382 1.70591 5.80608 1.72478 5.7926C1.74364 5.77912 1.76542 5.77028 1.78834 5.7668C1.81127 5.76332 1.83469 5.7653 1.8567 5.77257C1.87872 5.77985 1.89871 5.79221 1.91504 5.80867L8.31671 12.2103C10.3439 14.2405 13.6551 14.2417 15.6835 12.2103L22.0852 5.80867C22.1015 5.79221 22.1215 5.77985 22.1435 5.77257C22.1655 5.7653 22.1889 5.76332 22.2119 5.7668C22.2348 5.77028 22.2566 5.77912 22.2754 5.7926C22.2943 5.80608 22.3097 5.82382 22.3204 5.84438C22.6274 6.4276 22.7876 7.07686 22.7871 7.73593V16.2642C22.7871 18.5186 20.9533 20.3496 18.7017 20.3496H5.29848C3.04698 20.3496 1.21314 18.5186 1.21314 16.2642V7.73593Z" fill="#313131"/>
</svg>
