<svg width="50" height="50" viewBox="0 0 50 50" fill="none" xmlns="http://www.w3.org/2000/svg">
<rect width="50" height="50" rx="12" fill="white"/>
<g clip-path="url(#clip0_110_4136)">
<path d="M17.7621 27.7122L16.8571 31.0908L13.5493 31.1607C12.5607 29.3272 12 27.2294 12 25.0001C12 22.8443 12.5243 20.8115 13.4536 19.0215H13.4543L16.3992 19.5614L17.6892 22.4886C17.4192 23.2758 17.2721 24.1208 17.2721 25.0001C17.2722 25.9543 17.445 26.8687 17.7621 27.7122Z" fill="#FBBB00"/>
<path d="M37.7728 22.5715C37.9221 23.3579 38 24.1701 38 25.0001C38 25.9308 37.9021 26.8387 37.7157 27.7144C37.0829 30.6944 35.4293 33.2965 33.1386 35.138L33.1379 35.1373L29.4286 34.948L28.9036 31.6708C30.4236 30.7794 31.6115 29.3844 32.2372 27.7144H25.2858V22.5715H37.7728Z" fill="#518EF8"/>
<path d="M33.1379 35.1371L33.1386 35.1378C30.9108 36.9285 28.0807 38 25 38C20.0493 38 15.745 35.2329 13.5493 31.1607L17.7622 27.7122C18.86 30.6421 21.6865 32.7279 25 32.7279C26.4243 32.7279 27.7586 32.3428 28.9036 31.6707L33.1379 35.1371Z" fill="#28B446"/>
<path d="M33.2979 14.9928L29.0865 18.4407C27.9015 17.7 26.5007 17.2721 25.0001 17.2721C21.6115 17.2721 18.7322 19.4535 17.6893 22.4886L13.4543 19.0214H13.4536C15.6172 14.85 19.9758 12 25.0001 12C28.1543 12 31.0465 13.1236 33.2979 14.9928Z" fill="#F14336"/>
</g>
<defs>
<clipPath id="clip0_110_4136">
<rect width="26" height="26" fill="white" transform="translate(12 12)"/>
</clipPath>
</defs>
</svg>
