<svg width="24" height="24" viewBox="0 0 24 24" fill="none" xmlns="http://www.w3.org/2000/svg">
<path d="M19.6742 19.6744L4.32455 4.32516L4.32127 4.32141C4.23817 4.23898 4.13965 4.17373 4.03133 4.12938C3.92301 4.08504 3.80701 4.06246 3.68997 4.06293C3.57292 4.06341 3.45712 4.08694 3.34917 4.13218C3.24121 4.17741 3.14323 4.24346 3.0608 4.32656C2.97838 4.40967 2.91313 4.50819 2.86878 4.61651C2.82443 4.72483 2.80185 4.84082 2.80233 4.95787C2.8033 5.19425 2.89813 5.42057 3.06596 5.58703L4.40986 6.93094C2.78007 8.04715 1.37722 9.46289 0.275959 11.1028C0.0961223 11.3683 0 11.6817 0 12.0023C0 12.323 0.0961223 12.6364 0.275959 12.9019C3.08705 17.0625 7.54346 19.5 11.9999 19.4695C13.4434 19.4748 14.8772 19.2345 16.2402 18.7589L18.4156 20.9344C18.5833 21.0966 18.8078 21.1866 19.0411 21.185C19.2743 21.1834 19.4976 21.0904 19.663 20.9259C19.8284 20.7614 19.9227 20.5386 19.9256 20.3054C19.9284 20.0722 19.8397 19.8471 19.6785 19.6786L19.6742 19.6744ZM11.9999 17.0503C11.1556 17.05 10.3248 16.8381 9.58347 16.434C8.84216 16.0298 8.21395 15.4463 7.75626 14.7368C7.29857 14.0273 7.02599 13.2145 6.96343 12.3725C6.90087 11.5305 7.05033 10.6862 7.39815 9.91688L8.80205 11.3208C8.68897 11.8537 8.71082 12.4063 8.86562 12.9286C9.02042 13.4509 9.30326 13.9262 9.68845 14.3114C10.0736 14.6966 10.549 14.9794 11.0712 15.1342C11.5935 15.289 12.1462 15.3109 12.6791 15.1978L14.083 16.6017C13.4287 16.8984 12.7183 17.0514 11.9999 17.0503ZM23.7238 11.1005C20.9127 6.9375 16.4563 4.5 11.9999 4.53047C10.5564 4.52524 9.12248 4.76554 7.75955 5.2411L9.9158 7.39735C10.8515 6.97392 11.894 6.8457 12.9043 7.02978C13.9147 7.21386 14.845 7.7015 15.5712 8.42771C16.2974 9.15392 16.7851 10.0842 16.9691 11.0946C17.1532 12.105 17.025 13.1475 16.6016 14.0831L19.5894 17.0709C21.2195 15.9549 22.6225 14.5391 23.7238 12.8991C23.9035 12.6336 23.9996 12.3204 23.9996 11.9998C23.9996 11.6792 23.9035 11.3659 23.7238 11.1005Z" fill="#313131"/>
<path d="M12 8.73096C11.7717 8.73099 11.5441 8.75487 11.3208 8.80221L15.1978 12.6788C15.2989 12.2025 15.2924 11.7096 15.1786 11.2362C15.0648 10.7628 14.8467 10.3207 14.5403 9.94237C14.2338 9.56401 13.8467 9.2589 13.4072 9.04931C12.9677 8.83973 12.4869 8.73096 12 8.73096Z" fill="#313131"/>
</svg>
