<svg width="24" height="24" viewBox="0 0 24 24" fill="none" xmlns="http://www.w3.org/2000/svg">
<path d="M4.5 7.875V6.375C4.5 3.48 6.855 1.125 9.75 1.125C12.645 1.125 15 3.48 15 6.375V7.875H12.375V6.375C12.375 5.67881 12.0984 5.01113 11.6062 4.51884C11.1139 4.02656 10.4462 3.75 9.75 3.75C9.05381 3.75 8.38613 4.02656 7.89384 4.51884C7.40156 5.01113 7.125 5.67881 7.125 6.375V7.875H4.5ZM6 20.625C4.75912 20.625 3.75 19.6159 3.75 18.375V14.625C3.75 13.3841 4.75912 12.375 6 12.375H18.375V10.5C18.375 9.46613 17.5339 8.625 16.5 8.625H3C1.96613 8.625 1.125 9.46613 1.125 10.5V21C1.125 22.0339 1.96613 22.875 3 22.875H16.5C17.5339 22.875 18.375 22.0339 18.375 21V20.625H6ZM22.875 14.625V18.375C22.875 19.2022 22.2022 19.875 21.375 19.875H6C5.17275 19.875 4.5 19.2022 4.5 18.375V14.625C4.5 13.7977 5.17275 13.125 6 13.125H21.375C22.2022 13.125 22.875 13.7977 22.875 14.625ZM8.8125 16.5L9.22425 16.2623C9.26724 16.2378 9.30497 16.2051 9.33528 16.166C9.36558 16.1269 9.38785 16.0822 9.4008 16.0345C9.41376 15.9868 9.41715 15.937 9.41078 15.8879C9.4044 15.8389 9.38839 15.7916 9.36366 15.7488C9.33893 15.7059 9.30598 15.6684 9.26669 15.6384C9.22741 15.6083 9.18257 15.5864 9.13476 15.5737C9.08694 15.5611 9.0371 15.558 8.9881 15.5647C8.9391 15.5714 8.89191 15.5877 8.84925 15.6127L8.4375 15.8505V15.375C8.4375 15.2755 8.39799 15.1802 8.32767 15.1098C8.25734 15.0395 8.16196 15 8.0625 15C7.96304 15 7.86766 15.0395 7.79733 15.1098C7.72701 15.1802 7.6875 15.2755 7.6875 15.375V15.8505L7.27575 15.6127C7.23309 15.5877 7.1859 15.5714 7.1369 15.5647C7.0879 15.558 7.03806 15.5611 6.99024 15.5737C6.94243 15.5864 6.89759 15.6083 6.85831 15.6384C6.81902 15.6684 6.78607 15.7059 6.76134 15.7488C6.73661 15.7916 6.7206 15.8389 6.71422 15.8879C6.70785 15.937 6.71124 15.9868 6.7242 16.0345C6.73715 16.0822 6.75942 16.1269 6.78972 16.166C6.82003 16.2051 6.85776 16.2378 6.90075 16.2623L7.3125 16.5L6.90075 16.7377C6.85776 16.7622 6.82003 16.7949 6.78972 16.834C6.75942 16.8731 6.73715 16.9178 6.7242 16.9655C6.71124 17.0132 6.70785 17.063 6.71422 17.1121C6.7206 17.1611 6.73661 17.2084 6.76134 17.2512C6.78607 17.2941 6.81902 17.3316 6.85831 17.3616C6.89759 17.3917 6.94243 17.4136 6.99024 17.4263C7.03806 17.4389 7.0879 17.442 7.1369 17.4353C7.1859 17.4286 7.23309 17.4123 7.27575 17.3873L7.6875 17.1495V17.625C7.6875 17.7245 7.72701 17.8198 7.79733 17.8902C7.86766 17.9605 7.96304 18 8.0625 18C8.16196 18 8.25734 17.9605 8.32767 17.8902C8.39799 17.8198 8.4375 17.7245 8.4375 17.625V17.1495L8.84925 17.3873C8.89191 17.4123 8.9391 17.4286 8.9881 17.4353C9.0371 17.442 9.08694 17.4389 9.13476 17.4263C9.18257 17.4136 9.22741 17.3917 9.26669 17.3616C9.30598 17.3316 9.33893 17.2941 9.36366 17.2512C9.38839 17.2084 9.4044 17.1611 9.41078 17.1121C9.41715 17.063 9.41376 17.0132 9.4008 16.9655C9.38785 16.9178 9.36558 16.8731 9.33528 16.834C9.30497 16.7949 9.26724 16.7622 9.22425 16.7377L8.8125 16.5ZM12.5625 16.5L12.9742 16.2623C13.0172 16.2378 13.055 16.2051 13.0853 16.166C13.1156 16.1269 13.1378 16.0822 13.1508 16.0345C13.1638 15.9868 13.1672 15.937 13.1608 15.8879C13.1544 15.8389 13.1384 15.7916 13.1137 15.7488C13.0889 15.7059 13.056 15.6684 13.0167 15.6384C12.9774 15.6083 12.9326 15.5864 12.8848 15.5737C12.8369 15.5611 12.7871 15.558 12.7381 15.5647C12.6891 15.5714 12.6419 15.5877 12.5992 15.6127L12.1875 15.8505V15.375C12.1875 15.2755 12.148 15.1802 12.0777 15.1098C12.0073 15.0395 11.912 15 11.8125 15C11.713 15 11.6177 15.0395 11.5473 15.1098C11.477 15.1802 11.4375 15.2755 11.4375 15.375V15.8505L11.0258 15.6127C10.9831 15.5877 10.9359 15.5714 10.8869 15.5647C10.8379 15.558 10.7881 15.5611 10.7402 15.5737C10.6924 15.5864 10.6476 15.6083 10.6083 15.6384C10.569 15.6684 10.5361 15.7059 10.5113 15.7488C10.4866 15.7916 10.4706 15.8389 10.4642 15.8879C10.4578 15.937 10.4612 15.9868 10.4742 16.0345C10.4872 16.0822 10.5094 16.1269 10.5397 16.166C10.57 16.2051 10.6078 16.2378 10.6508 16.2623L11.0625 16.5L10.6508 16.7377C10.6078 16.7622 10.57 16.7949 10.5397 16.834C10.5094 16.8731 10.4872 16.9178 10.4742 16.9655C10.4612 17.0132 10.4578 17.063 10.4642 17.1121C10.4706 17.1611 10.4866 17.2084 10.5113 17.2512C10.5361 17.2941 10.569 17.3316 10.6083 17.3616C10.6476 17.3917 10.6924 17.4136 10.7402 17.4263C10.7881 17.4389 10.8379 17.442 10.8869 17.4353C10.9359 17.4286 10.9831 17.4123 11.0258 17.3873L11.4375 17.1495V17.625C11.4375 17.7245 11.477 17.8198 11.5473 17.8902C11.6177 17.9605 11.713 18 11.8125 18C11.912 18 12.0073 17.9605 12.0777 17.8902C12.148 17.8198 12.1875 17.7245 12.1875 17.625V17.1495L12.5992 17.3873C12.6419 17.4123 12.6891 17.4286 12.7381 17.4353C12.7871 17.442 12.8369 17.4389 12.8848 17.4263C12.9326 17.4136 12.9774 17.3917 13.0167 17.3616C13.056 17.3316 13.0889 17.2941 13.1137 17.2512C13.1384 17.2084 13.1544 17.1611 13.1608 17.1121C13.1672 17.063 13.1638 17.0132 13.1508 16.9655C13.1378 16.9178 13.1156 16.8731 13.0853 16.834C13.055 16.7949 13.0172 16.7622 12.9742 16.7377L12.5625 16.5ZM16.3125 16.5L16.7242 16.2623C16.7672 16.2378 16.805 16.2051 16.8353 16.166C16.8656 16.1269 16.8878 16.0822 16.9008 16.0345C16.9138 15.9868 16.9172 15.937 16.9108 15.8879C16.9044 15.8389 16.8884 15.7916 16.8637 15.7488C16.8389 15.7059 16.806 15.6684 16.7667 15.6384C16.7274 15.6083 16.6826 15.5864 16.6348 15.5737C16.5869 15.5611 16.5371 15.558 16.4881 15.5647C16.4391 15.5714 16.3919 15.5877 16.3492 15.6127L15.9375 15.8505V15.375C15.9375 15.2755 15.898 15.1802 15.8277 15.1098C15.7573 15.0395 15.662 15 15.5625 15C15.463 15 15.3677 15.0395 15.2973 15.1098C15.227 15.1802 15.1875 15.2755 15.1875 15.375V15.8505L14.7758 15.6127C14.7331 15.5877 14.6859 15.5714 14.6369 15.5647C14.5879 15.558 14.5381 15.5611 14.4902 15.5737C14.4424 15.5864 14.3976 15.6083 14.3583 15.6384C14.319 15.6684 14.2861 15.7059 14.2613 15.7488C14.2366 15.7916 14.2206 15.8389 14.2142 15.8879C14.2078 15.937 14.2112 15.9868 14.2242 16.0345C14.2372 16.0822 14.2594 16.1269 14.2897 16.166C14.32 16.2051 14.3578 16.2378 14.4008 16.2623L14.8125 16.5L14.4008 16.7377C14.3578 16.7622 14.32 16.7949 14.2897 16.834C14.2594 16.8731 14.2372 16.9178 14.2242 16.9655C14.2112 17.0132 14.2078 17.063 14.2142 17.1121C14.2206 17.1611 14.2366 17.2084 14.2613 17.2512C14.2861 17.2941 14.319 17.3316 14.3583 17.3616C14.3976 17.3917 14.4424 17.4136 14.4902 17.4263C14.5381 17.4389 14.5879 17.442 14.6369 17.4353C14.6859 17.4286 14.7331 17.4123 14.7758 17.3873L15.1875 17.1495V17.625C15.1875 17.7245 15.227 17.8198 15.2973 17.8902C15.3677 17.9605 15.463 18 15.5625 18C15.662 18 15.7573 17.9605 15.8277 17.8902C15.898 17.8198 15.9375 17.7245 15.9375 17.625V17.1495L16.3492 17.3873C16.3919 17.4123 16.4391 17.4286 16.4881 17.4353C16.5371 17.442 16.5869 17.4389 16.6348 17.4263C16.6826 17.4136 16.7274 17.3917 16.7667 17.3616C16.806 17.3316 16.8389 17.2941 16.8637 17.2512C16.8884 17.2084 16.9044 17.1611 16.9108 17.1121C16.9172 17.063 16.9138 17.0132 16.9008 16.9655C16.8878 16.9178 16.8656 16.8731 16.8353 16.834C16.805 16.7949 16.7672 16.7622 16.7242 16.7377L16.3125 16.5ZM20.0625 16.5L20.4743 16.2623C20.5172 16.2378 20.555 16.2051 20.5853 16.166C20.6156 16.1269 20.6378 16.0822 20.6508 16.0345C20.6638 15.9868 20.6672 15.937 20.6608 15.8879C20.6544 15.8389 20.6384 15.7916 20.6137 15.7488C20.5889 15.7059 20.556 15.6684 20.5167 15.6384C20.4774 15.6083 20.4326 15.5864 20.3848 15.5737C20.3369 15.5611 20.2871 15.558 20.2381 15.5647C20.1891 15.5714 20.1419 15.5877 20.0993 15.6127L19.6875 15.8505V15.375C19.6875 15.2755 19.648 15.1802 19.5777 15.1098C19.5073 15.0395 19.412 15 19.3125 15C19.213 15 19.1177 15.0395 19.0473 15.1098C18.977 15.1802 18.9375 15.2755 18.9375 15.375V15.8505L18.5257 15.6127C18.4831 15.5877 18.4359 15.5714 18.3869 15.5647C18.3379 15.558 18.2881 15.5611 18.2402 15.5737C18.1924 15.5864 18.1476 15.6083 18.1083 15.6384C18.069 15.6684 18.0361 15.7059 18.0113 15.7488C17.9866 15.7916 17.9706 15.8389 17.9642 15.8879C17.9578 15.937 17.9612 15.9868 17.9742 16.0345C17.9872 16.0822 18.0094 16.1269 18.0397 16.166C18.07 16.2051 18.1078 16.2378 18.1507 16.2623L18.5625 16.5L18.1507 16.7377C18.1078 16.7622 18.07 16.7949 18.0397 16.834C18.0094 16.8731 17.9872 16.9178 17.9742 16.9655C17.9612 17.0132 17.9578 17.063 17.9642 17.1121C17.9706 17.1611 17.9866 17.2084 18.0113 17.2512C18.0361 17.2941 18.069 17.3316 18.1083 17.3616C18.1476 17.3917 18.1924 17.4136 18.2402 17.4263C18.2881 17.4389 18.3379 17.442 18.3869 17.4353C18.4359 17.4286 18.4831 17.4123 18.5257 17.3873L18.9375 17.1495V17.625C18.9375 17.7245 18.977 17.8198 19.0473 17.8902C19.1177 17.9605 19.213 18 19.3125 18C19.412 18 19.5073 17.9605 19.5777 17.8902C19.648 17.8198 19.6875 17.7245 19.6875 17.625V17.1495L20.0993 17.3873C20.1419 17.4123 20.1891 17.4286 20.2381 17.4353C20.2871 17.442 20.3369 17.4389 20.3848 17.4263C20.4326 17.4136 20.4774 17.3917 20.5167 17.3616C20.556 17.3316 20.5889 17.2941 20.6137 17.2512C20.6384 17.2084 20.6544 17.1611 20.6608 17.1121C20.6672 17.063 20.6638 17.0132 20.6508 16.9655C20.6378 16.9178 20.6156 16.8731 20.5853 16.834C20.555 16.7949 20.5172 16.7622 20.4743 16.7377L20.0625 16.5Z" fill="#313131"/>
</svg>
