<svg width="36" height="36" viewBox="0 0 36 36" fill="none" xmlns="http://www.w3.org/2000/svg">
<path d="M17.6179 21.8835H17.6078C17.4601 21.8822 17.314 21.8518 17.1781 21.794C17.0421 21.7363 16.9188 21.6523 16.8153 21.5469C16.7117 21.4415 16.63 21.3167 16.5747 21.1797C16.5194 21.0427 16.4916 20.8961 16.4929 20.7484L16.498 20.1859C16.498 20.1538 16.4997 20.1212 16.5031 20.0892C16.6589 18.4528 17.7451 17.4499 18.6186 16.6438C18.9145 16.3705 19.1946 16.1123 19.4331 15.8428C19.7239 15.5149 20.1458 14.8433 19.702 14.0327C19.1907 13.0967 17.9419 12.8318 16.9716 13.054C15.958 13.2857 15.5845 14.1514 15.4517 14.6464C15.3659 14.9248 15.1754 15.1591 14.9205 15.3001C14.6655 15.441 14.3658 15.4777 14.0843 15.4023C13.8029 15.3269 13.5616 15.1454 13.4112 14.8959C13.2608 14.6464 13.2129 14.3483 13.2777 14.0642C13.726 12.3897 14.8892 11.2225 16.4687 10.8608C18.5944 10.3753 20.7353 11.2343 21.6752 12.9527C22.4577 14.3837 22.2434 16.0628 21.1156 17.3352C20.8022 17.6884 20.4676 17.9978 20.1436 18.2965C19.3364 19.0418 18.8318 19.5402 18.7463 20.2596L18.7418 20.7675C18.7397 21.0642 18.6204 21.3481 18.4099 21.5571C18.1993 21.7662 17.9146 21.8835 17.6179 21.8835ZM17.6174 25.2563C17.3249 25.2563 17.0324 25.1382 16.8242 24.93C16.7189 24.826 16.6353 24.702 16.5782 24.5654C16.5211 24.4288 16.4917 24.2822 16.4917 24.1341C16.4917 23.986 16.5211 23.8394 16.5782 23.7028C16.6353 23.5662 16.7189 23.4422 16.8242 23.3382C17.2405 22.9219 17.9942 22.9219 18.4105 23.3382C18.6242 23.5463 18.7424 23.8388 18.7424 24.1313C18.7424 24.4294 18.6242 24.7163 18.4161 24.93C18.2024 25.1382 17.9155 25.2563 17.6174 25.2563Z" fill="#313131"/>
<path d="M17.9566 32.6233C16.6835 32.6243 15.4158 32.4577 14.1862 32.1278C8.91893 30.7108 4.79468 26.3475 3.67924 21.0111C2.54243 15.5745 4.64056 9.85951 9.02524 6.45133C11.5599 4.48089 14.7566 3.39526 18.0269 3.39526C20.291 3.39526 22.5393 3.92176 24.5294 4.91683C29.444 7.37551 32.6193 12.5123 32.6193 18.004C32.6193 22.4848 30.5049 26.8037 26.9634 29.5566C24.4197 31.5343 21.2208 32.6233 17.9566 32.6233ZM18.0275 5.64526C15.2549 5.64526 12.5482 6.56214 10.4067 8.2277C6.69593 11.1122 4.91956 15.9491 5.88199 20.5504C6.82587 25.0644 10.3151 28.7561 14.7712 29.9548C15.8028 30.2321 16.8749 30.3733 17.9566 30.3733C20.723 30.3733 23.4314 29.4525 25.583 27.7802C28.5806 25.4503 30.3699 21.7958 30.3699 18.004C30.3699 13.3571 27.6828 9.01014 23.5237 6.92945C21.8441 6.08964 19.9439 5.64526 18.0275 5.64526Z" fill="#313131"/>
</svg>
