<svg width="40" height="40" viewBox="0 0 40 40" fill="none" xmlns="http://www.w3.org/2000/svg">
<mask id="path-1-inside-1_113_5319" fill="white">
<path d="M0 20C0 8.95431 8.95431 0 20 0C31.0457 0 40 8.95431 40 20C40 31.0457 31.0457 40 20 40C8.95431 40 0 31.0457 0 20Z"/>
</mask>
<path d="M0 20C0 8.95431 8.95431 0 20 0C31.0457 0 40 8.95431 40 20C40 31.0457 31.0457 40 20 40C8.95431 40 0 31.0457 0 20Z" fill="#1075FF" fill-opacity="0.2"/>
<path d="M0 20C0 8.95431 8.95431 0 20 0C31.0457 0 40 8.95431 40 20C40 31.0457 31.0457 40 20 40C8.95431 40 0 31.0457 0 20Z" fill="white" fill-opacity="0.35"/>
<path d="M0 0H40H0ZM40.2 21.3C40.2 32.4562 31.1562 41.5 20 41.5V41.5C8.84385 41.5 -0.2 32.4562 -0.2 21.3L0.2 20C0.2 30.2173 9.06476 38.5 20 38.5V38.5C30.9352 38.5 39.8 30.2173 39.8 20L40.2 21.3ZM20 41.5C8.84385 41.5 -0.2 32.4562 -0.2 21.3V20.2C-0.2 9.04385 8.84385 0 20 0V0C9.06476 0 0.2 8.9543 0.2 20C0.2 30.2173 9.06476 38.5 20 38.5V41.5ZM20 0C31.1562 0 40.2 9.04385 40.2 20.2V21.3C40.2 32.4562 31.1562 41.5 20 41.5V38.5C30.9352 38.5 39.8 30.2173 39.8 20C39.8 8.9543 30.9352 0 20 0V0Z" fill="url(#paint0_linear_113_5319)" mask="url(#path-1-inside-1_113_5319)"/>
<path d="M30.45 17.4393C30.4507 18.1243 30.3107 18.8021 30.0388 19.4308C29.2377 18.4845 28.1417 17.8349 26.9269 17.5865C26.7733 16.573 26.3981 15.6059 25.828 14.754C25.258 13.902 24.5071 13.1863 23.6289 12.6576C24.1826 12.4499 24.7692 12.3441 25.3605 12.3452C28.1624 12.3452 30.45 14.6374 30.45 17.4393Z" fill="url(#paint1_linear_113_5319)"/>
<path d="M14.186 27.6547C11.6296 27.6547 9.54999 25.5753 9.54999 23.0191C9.54999 20.7199 11.2713 18.75 13.5538 18.437L13.9115 18.3879L13.9482 18.0291C14.0991 16.5301 14.8022 15.1408 15.9208 14.1316C17.0394 13.1224 18.4934 12.5655 20 12.5691C21.5072 12.565 22.9621 13.1216 24.0817 14.1307C25.2013 15.1398 25.9055 16.5293 26.0575 18.0289L26.0946 18.3877L26.4521 18.4367C28.7313 18.7498 30.45 20.7195 30.45 23.0191C30.45 25.5753 28.373 27.6547 25.8199 27.6547H14.186Z" fill="url(#paint2_linear_113_5319)"/>
<defs>
<linearGradient id="paint0_linear_113_5319" x1="40" y1="20" x2="0" y2="20" gradientUnits="userSpaceOnUse">
<stop stop-color="#1075FF" stop-opacity="0.12"/>
<stop offset="0.500021" stop-color="#1075FF"/>
<stop offset="1" stop-color="#1075FF" stop-opacity="0.12"/>
</linearGradient>
<linearGradient id="paint1_linear_113_5319" x1="15.4581" y1="2.02964" x2="35.7016" y2="24.2147" gradientUnits="userSpaceOnUse">
<stop stop-color="#97E0FF"/>
<stop offset="1" stop-color="#1075FF"/>
</linearGradient>
<linearGradient id="paint2_linear_113_5319" x1="7.52511" y1="9.26846" x2="27.7686" y2="31.4533" gradientUnits="userSpaceOnUse">
<stop stop-color="#97E0FF"/>
<stop offset="1" stop-color="#1075FF"/>
</linearGradient>
</defs>
</svg>
