<svg width="40" height="40" viewBox="0 0 40 40" fill="none" xmlns="http://www.w3.org/2000/svg">
<path d="M0 20C0 8.95431 8.95431 0 20 0C31.0457 0 40 8.95431 40 20C40 31.0457 31.0457 40 20 40H8.25397C3.69543 40 0 36.3046 0 31.746V20Z" fill="#0000FF"/>
<g clip-path="url(#clip0_118_2)">
<path fill-rule="evenodd" clip-rule="evenodd" d="M11.0625 32.1875H20C26.7316 32.1875 32.1875 26.7312 32.1875 20.0008V20C32.1875 13.2688 26.7316 7.8125 20 7.8125C16.7662 7.8125 13.6666 9.09666 11.3834 11.3822C10.2513 12.5136 9.35315 13.8571 8.74043 15.3358C8.12771 16.8145 7.81239 18.3994 7.8125 20V28.9375C7.8125 29.7995 8.15491 30.6261 8.7644 31.2356C9.3739 31.8451 10.2005 32.1875 11.0625 32.1875ZM11.0625 30.5625C10.6315 30.5625 10.2182 30.3913 9.91345 30.0865C9.6087 29.7818 9.4375 29.3685 9.4375 28.9375V20C9.4375 17.1985 10.5506 14.512 12.5331 12.5311C13.5133 11.55 14.6773 10.7718 15.9586 10.2409C17.2398 9.71009 18.6131 9.43708 20 9.4375C25.8337 9.4375 30.5625 14.1667 30.5625 20V20.0008C30.5625 25.8337 25.8337 30.5625 20 30.5625H11.0625ZM24.5175 15.2936C24.0301 14.8003 23.3666 14.5207 22.6731 14.5164C22.3279 14.5143 21.9857 14.5807 21.6664 14.7117C21.347 14.8428 21.0568 15.0358 20.8125 15.2798C19.2891 16.8 15.9456 20.1402 14.5725 21.5104C14.0745 22.0049 13.7146 22.621 13.5284 23.2975L13.1547 24.643C12.9962 25.2073 13.1547 25.8126 13.5691 26.227C13.9834 26.6414 14.5887 26.8006 15.1534 26.6438C15.6084 26.5171 16.1041 26.3806 16.5022 26.2692C17.1762 26.082 17.7905 25.7239 18.2856 25.2297C19.6506 23.8683 22.9697 20.5562 24.5053 19.0238C25.5291 17.9984 25.5413 16.3372 24.5256 15.3005L24.5175 15.2936ZM19.9634 18.4246L15.7181 22.6605C15.4213 22.9585 15.2059 23.3276 15.0925 23.7326L14.7188 25.0781L16.0675 24.7036C16.4738 24.591 16.8394 24.3765 17.14 24.08L21.3772 19.8489C21.2472 19.4991 21.0684 19.2033 20.8328 18.9653C20.5972 18.7276 20.3047 18.5497 19.9634 18.4246ZM22.5959 18.6301L23.3556 17.8737C23.543 17.6854 23.6499 17.4317 23.6537 17.166C23.6575 16.9004 23.5579 16.6437 23.3759 16.4502L23.3637 16.4372C23.1778 16.2495 22.9251 16.1431 22.6609 16.1414C22.5312 16.1408 22.4025 16.1659 22.2826 16.2154C22.1626 16.265 22.0537 16.3378 21.9622 16.4299L21.1822 17.2054C21.4828 17.3772 21.7509 17.5828 21.9866 17.8201C22.2255 18.0612 22.4305 18.3337 22.5959 18.6301Z" fill="white"/>
</g>
<defs>
<clipPath id="clip0_118_2">
<rect width="26" height="26" fill="white" transform="translate(7 7)"/>
</clipPath>
</defs>
</svg>
