<svg width="40" height="40" viewBox="0 0 40 40" fill="none" xmlns="http://www.w3.org/2000/svg">
<circle cx="20" cy="20" r="20" fill="#0000FF"/>
<circle cx="20" cy="20" r="18" stroke="white" stroke-opacity="0.8" stroke-width="4"/>
<g clip-path="url(#clip0_354_1334)">
<path d="M21.6457 15.3516L13.9428 23.0551C13.904 23.094 13.8763 23.1426 13.8627 23.1958L13.0089 26.6228C12.9963 26.6737 12.9971 26.7269 13.0111 26.7774C13.0251 26.8278 13.0519 26.8738 13.0889 26.9109C13.1458 26.9676 13.2227 26.9994 13.3029 26.9994C13.3276 26.9994 13.3523 26.9964 13.3763 26.9904L16.8033 26.1364C16.8566 26.123 16.9052 26.0954 16.944 26.0565L24.6477 18.3535L21.6457 15.3516ZM26.556 14.3012L25.6985 13.4438C25.1255 12.8707 24.1266 12.8712 23.5542 13.4438L22.5039 14.4941L25.5057 17.4959L26.556 16.4456C26.8423 16.1594 27 15.7785 27 15.3735C27 14.9684 26.8423 14.5875 26.556 14.3012Z" fill="white"/>
</g>
<defs>
<clipPath id="clip0_354_1334">
<rect width="14" height="14" fill="white" transform="translate(13 13)"/>
</clipPath>
</defs>
</svg>