<svg width="22" height="22" viewBox="0 0 22 22" fill="none" xmlns="http://www.w3.org/2000/svg">
<path d="M17.875 5.04167L17.3069 14.2313C17.1617 16.5792 17.0892 17.7532 16.5007 18.5972C16.2097 19.0145 15.8351 19.3667 15.4006 19.6313C14.5219 20.1667 13.3457 20.1667 10.9933 20.1667C8.63786 20.1667 7.46011 20.1667 6.5808 19.6303C6.14607 19.3652 5.77133 19.0124 5.48046 18.5944C4.89214 17.7491 4.82116 16.5734 4.67923 14.2223L4.125 5.04167" stroke="#313131" stroke-width="1.25" stroke-linecap="round"/>
<path d="M2.75 5.04167H19.25M14.7177 5.04167L14.092 3.75075C13.6763 2.89324 13.4684 2.46448 13.1099 2.19708C13.0304 2.13776 12.9462 2.085 12.8581 2.03931C12.4611 1.83334 11.9846 1.83334 11.0316 1.83334C10.0547 1.83334 9.56633 1.83334 9.16271 2.04795C9.07326 2.09551 8.9879 2.15041 8.90752 2.21208C8.54484 2.49031 8.34224 2.93476 7.93706 3.82366L7.38184 5.04167" stroke="#313131" stroke-width="1.25" stroke-linecap="round"/>
<path d="M8.70825 15.125V9.625" stroke="#313131" stroke-width="1.25" stroke-linecap="round"/>
<path d="M13.2917 15.125V9.625" stroke="#313131" stroke-width="1.25" stroke-linecap="round"/>
</svg>
