<svg width="22" height="22" viewBox="0 0 22 22" fill="none" xmlns="http://www.w3.org/2000/svg">
<path d="M14.6668 11C14.6668 11 11.9664 14.6667 11.0001 14.6667C10.0339 14.6667 7.3335 11 7.3335 11M11.0001 14.2083V2.75" stroke="#313131" stroke-width="1.25" stroke-linecap="round" stroke-linejoin="round"/>
<path d="M15.5833 7.33333C17.6084 7.33333 19.25 8.97495 19.25 11V13.2917C19.25 15.4317 19.25 16.5017 18.817 17.3118C18.4752 17.9514 17.9513 18.4751 17.3118 18.8171C16.5018 19.25 15.4318 19.25 13.2916 19.25H8.7087C6.56827 19.25 5.49807 19.25 4.68796 18.8169C4.0486 18.475 3.5249 17.9514 3.18309 17.3121C2.75 16.5019 2.75 15.4317 2.75 13.2913V10.9991C2.7505 8.97521 4.39071 7.33447 6.41459 7.33333H6.41667" stroke="#313131" stroke-width="1.25" stroke-linecap="round" stroke-linejoin="round"/>
</svg>
