<svg width="20" height="20" viewBox="0 0 20 20" fill="none" xmlns="http://www.w3.org/2000/svg">
<path d="M19.1937 4.55626L15.4437 0.80626C15.3853 0.748335 15.3161 0.702506 15.2399 0.671403C15.1638 0.640301 15.0823 0.624535 15 0.62501H13.75V5.62501C13.75 5.95653 13.6183 6.27447 13.3839 6.50889C13.1495 6.74331 12.8315 6.87501 12.5 6.87501H7.5C7.16848 6.87501 6.85054 6.74331 6.61612 6.50889C6.3817 6.27447 6.25 5.95653 6.25 5.62501V0.62501H2.5C2.00272 0.62501 1.52581 0.822554 1.17417 1.17419C0.822544 1.52582 0.625 2.00273 0.625 2.50001V17.5C0.625 17.9973 0.822544 18.4742 1.17417 18.8258C1.52581 19.1775 2.00272 19.375 2.5 19.375H3.75V13.75C3.75 13.2527 3.94754 12.7758 4.29917 12.4242C4.65081 12.0726 5.12772 11.875 5.625 11.875H14.375C14.8723 11.875 15.3492 12.0726 15.7008 12.4242C16.0525 12.7758 16.25 13.2527 16.25 13.75V19.375H17.5C17.9973 19.375 18.4742 19.1775 18.8258 18.8258C19.1775 18.4742 19.375 17.9973 19.375 17.5V5.00001C19.3755 4.91776 19.3597 4.83622 19.3286 4.76007C19.2975 4.68392 19.2517 4.61466 19.1937 4.55626Z" fill="white"/>
<path d="M7.5 0.625H12.5V5.625H7.5V0.625ZM14.375 13.125H5.625C5.45924 13.125 5.30027 13.1908 5.18306 13.3081C5.06585 13.4253 5 13.5842 5 13.75V19.375H15V13.75C15 13.5842 14.9342 13.4253 14.8169 13.3081C14.6997 13.1908 14.5408 13.125 14.375 13.125Z" fill="white"/>
</svg>
