<svg width="22" height="22" viewBox="0 0 22 22" fill="none" xmlns="http://www.w3.org/2000/svg">
<path d="M14.6667 15.125L18.3333 18.7917" stroke="#707070" stroke-width="1.1" stroke-linecap="round" stroke-linejoin="round"/>
<path d="M16.5 10.5417C16.5 14.0855 13.6272 16.9583 10.0834 16.9583C6.53953 16.9583 3.66669 14.0855 3.66669 10.5417C3.66669 6.99787 6.53953 4.12503 10.0834 4.12503" stroke="#707070" stroke-width="1.1" stroke-linecap="round" stroke-linejoin="round"/>
<path d="M14.2083 3.20836L14.4447 3.84731C14.7548 4.68513 14.9098 5.10405 15.2154 5.40964C15.521 5.71524 15.9399 5.87024 16.7777 6.18027L17.4167 6.4167L16.7777 6.65312C15.9399 6.96315 15.521 7.11817 15.2154 7.42376C14.9098 7.72934 14.7548 8.14826 14.4447 8.98609L14.2083 9.625L13.9719 8.98609C13.6619 8.14826 13.5069 7.72934 13.2013 7.42376C12.8957 7.11817 12.4767 6.96315 11.6389 6.65312L11 6.4167L11.6389 6.18027C12.4767 5.87024 12.8957 5.71524 13.2013 5.40964C13.5069 5.10405 13.6619 4.68513 13.9719 3.84731L14.2083 3.20836Z" stroke="#707070" stroke-width="1.1" stroke-linecap="round" stroke-linejoin="round"/>
</svg>
