<svg width="22" height="22" viewBox="0 0 22 22" fill="none" xmlns="http://www.w3.org/2000/svg">
<path fill-rule="evenodd" clip-rule="evenodd" d="M11.0042 1.38086C13.5267 1.42644 15.9306 2.46054 17.6985 4.26062C19.4663 6.0607 20.4568 8.48286 20.4568 11.0059C20.4568 13.5289 19.4663 15.951 17.6985 17.7511C15.9306 19.5512 13.5267 20.5853 11.0042 20.6309C8.48156 20.5853 6.07769 19.5512 4.30985 17.7511C2.54201 15.951 1.55151 13.5289 1.55151 11.0059C1.55151 8.48286 2.54201 6.0607 4.30985 4.26062C6.07769 2.46054 8.48156 1.42644 11.0042 1.38086ZM9.0053 14.1325L6.64815 11.7732C6.45521 11.5796 6.34687 11.3174 6.34687 11.0441C6.34687 10.7708 6.45521 10.5086 6.64815 10.315C6.84208 10.1222 7.1044 10.014 7.37782 10.014C7.65125 10.014 7.91356 10.1222 8.10749 10.315L9.76796 11.9775L13.9008 7.84467C14.0944 7.65173 14.3566 7.54339 14.63 7.54339C14.9033 7.54339 15.1655 7.65173 15.3591 7.84467C15.5518 8.03842 15.66 8.30056 15.66 8.57381C15.66 8.84706 15.5518 9.10921 15.3591 9.30296L10.4961 14.166C10.3973 14.2642 10.2798 14.3415 10.1505 14.3932C10.0212 14.4448 9.88276 14.4699 9.74354 14.4667C9.60432 14.4636 9.46717 14.4324 9.34031 14.3749C9.21345 14.3175 9.0995 14.235 9.0053 14.1325Z" fill="#00BA00"/>
</svg>
