<svg width="24" height="24" viewBox="0 0 24 24" fill="none" xmlns="http://www.w3.org/2000/svg">
<path d="M17.3447 16.6826H15.717C15.4328 17.403 14.9777 18.0435 14.391 18.5489C13.5273 19.293 12.423 19.7026 11.2817 19.7026C10.1389 19.7027 9.0341 19.2921 8.16872 18.5457C7.58357 18.0408 7.12965 17.4015 6.84591 16.6826H5.40473C2.4247 16.6826 0 19.1071 0 22.0874V23.9999H22.7494V22.0874C22.7494 19.1071 20.3249 16.6826 17.3447 16.6826Z" fill="#D5D5D5"/>
<path d="M9.08757 17.4813C9.69755 18.0073 10.4763 18.2966 11.2817 18.2964C12.0863 18.2964 12.8647 18.0077 13.4733 17.4834C13.8758 17.1367 14.1906 16.6997 14.3921 16.2081L14.2883 15.9259C13.3565 16.3692 12.338 16.6005 11.3061 16.6033L11.281 16.6035C10.2838 16.6035 9.31772 16.3984 8.43099 16.0086L8.27386 16.4352C8.47322 16.8343 8.74977 17.1899 9.08757 17.4813ZM7.41896 4.85597H15.7341C17.2473 4.85597 18.4783 3.62494 18.4783 2.11191L18.4822 0H17.0787V0.551859H10.1371C7.61175 0.551859 5.55713 2.60648 5.55713 5.13187V7.13892L7.41896 4.85597Z" fill="#313131"/>
<path d="M11.281 15.2443C11.2878 15.2443 11.2948 15.2441 11.3016 15.2441C14.4466 15.2333 17.0055 12.6411 17.0055 9.46567V6.06006C16.5947 6.19261 16.1658 6.25996 15.7342 6.25965H8.13544L5.55713 9.358V9.52004C5.55713 11.0529 6.15497 12.4928 7.24079 13.5747C8.32163 14.6519 9.75554 15.2443 11.281 15.2443H11.281Z" fill="#D5D5D5"/>
</svg>
