<svg width="26" height="26" viewBox="0 0 26 26" fill="none" xmlns="http://www.w3.org/2000/svg">
<g clip-path="url(#clip0_356_1561)">
<path d="M22.8913 6.21749H20.1783L18.6804 3.95662C18.1152 3.10879 17.1261 2.6001 16.1087 2.6001H9.89132C8.87393 2.6001 7.88479 3.10879 7.31958 3.95662L5.82175 6.21749H3.10871C2.70014 6.21631 2.29536 6.29591 1.91767 6.45172C1.53997 6.60753 1.1968 6.83647 0.907897 7.12537C0.618992 7.41428 0.390053 7.75745 0.234244 8.13514C0.0784357 8.51284 -0.00116739 8.91761 1.2936e-05 9.32618V20.2914C-0.00116739 20.7 0.0784357 21.1047 0.234244 21.4824C0.390053 21.8601 0.618992 22.2033 0.907897 22.4922C1.1968 22.7811 1.53997 23.0101 1.91767 23.1659C2.29536 23.3217 2.70014 23.4013 3.10871 23.4001H22.8913C23.2999 23.4013 23.7047 23.3217 24.0824 23.1659C24.4601 23.0101 24.8032 22.7811 25.0921 22.4922C25.381 22.2033 25.61 21.8601 25.7658 21.4824C25.9216 21.1047 26.0012 20.7 26 20.2914V9.32618C26.0012 8.91761 25.9216 8.51284 25.7658 8.13514C25.61 7.75745 25.381 7.41428 25.0921 7.12537C24.8032 6.83647 24.4601 6.60753 24.0824 6.45172C23.7047 6.29591 23.2999 6.21631 22.8913 6.21749ZM13 20.8566C9.12827 20.8566 5.99132 17.7197 5.99132 13.8479C5.99132 9.97618 9.12827 6.86749 13 6.86749C16.8718 6.86749 20.0087 10.0044 20.0087 13.8762C20.0087 17.7197 16.8718 20.8566 13 20.8566ZM22.4957 10.5979H21.2522C20.7435 10.5697 20.3478 10.1457 20.3761 9.63705C20.4044 9.15662 20.7718 8.78923 21.2522 8.76097H22.3826C22.8913 8.73271 23.3152 9.12836 23.3435 9.63705C23.3717 10.1457 23.0044 10.5697 22.4957 10.5979Z" fill="#D5D5D5"/>
<path d="M13.0001 9.97607C10.8523 9.97607 9.1001 11.7282 9.1001 13.8761C9.1001 16.0239 10.8523 17.7478 13.0001 17.7478C15.1479 17.7478 16.9001 15.9956 16.9001 13.8478C16.9001 11.7 15.1479 9.97607 13.0001 9.97607Z" fill="#313131"/>
</g>
<defs>
<clipPath id="clip0_356_1561">
<rect width="26" height="26" fill="white"/>
</clipPath>
</defs>
</svg>
