<svg width="26" height="26" viewBox="0 0 26 26" fill="none" xmlns="http://www.w3.org/2000/svg">
<path d="M19.4998 1.354H6.49984C5.13543 1.35515 3.82723 1.89767 2.86245 2.86245C1.89767 3.82723 1.35515 5.13543 1.354 6.49984V19.4998C1.35515 20.8642 1.89767 22.1724 2.86245 23.1372C3.82723 24.102 5.13543 24.6445 6.49984 24.6457H19.4998C20.8642 24.6445 22.1724 24.102 23.1372 23.1372C24.102 22.1724 24.6445 20.8642 24.6457 19.4998V6.49984C24.6445 5.13543 24.102 3.82723 23.1372 2.86245C22.1724 1.89767 20.8642 1.35515 19.4998 1.354ZM23.0207 19.4998C23.019 20.4331 22.6475 21.3276 21.9875 21.9875C21.3276 22.6475 20.4331 23.019 19.4998 23.0207H6.49984C5.56658 23.019 4.67204 22.6475 4.01213 21.9875C3.35222 21.3276 2.98072 20.4331 2.979 19.4998V6.49984C2.98072 5.56658 3.35222 4.67204 4.01213 4.01213C4.67204 3.35222 5.56658 2.98072 6.49984 2.979H19.4998C20.4331 2.98072 21.3276 3.35222 21.9875 4.01213C22.6475 4.67204 23.019 5.56658 23.0207 6.49984V19.4998Z" fill="#D5D5D5"/>
<path d="M17.3332 10.5623C18.9785 10.5623 20.3123 9.22852 20.3123 7.58317C20.3123 5.93782 18.9785 4.604 17.3332 4.604C15.6878 4.604 14.354 5.93782 14.354 7.58317C14.354 9.22852 15.6878 10.5623 17.3332 10.5623Z" fill="#313131"/>
<path d="M18.1457 23.8331C18.1484 24.1077 18.1119 24.3813 18.0373 24.6456H6.49984C5.13543 24.6445 3.82723 24.102 2.86245 23.1372C1.89767 22.1724 1.35515 20.8642 1.354 19.4998V13.3898C1.87681 13.1287 2.42033 12.9113 2.979 12.7398C4.65795 12.209 6.43538 12.0656 8.1777 12.3204C9.92002 12.5753 11.5819 13.2217 13.0385 14.2112C14.4951 15.2007 15.7084 16.5074 16.5874 18.0332C17.4663 19.559 17.988 21.2642 18.1132 23.0206C18.1348 23.2915 18.1457 23.5623 18.1457 23.8331Z" fill="#D5D5D5"/>
<path d="M24.6455 16.445V19.5C24.6444 20.8644 24.1018 22.1726 23.1371 23.1374C22.1723 24.1022 20.8641 24.6447 19.4997 24.6458H19.1422C19.1989 24.3787 19.228 24.1064 19.2288 23.8333C19.2288 23.53 19.218 23.2375 19.1963 22.945C19.0251 20.4167 18.0922 17.9995 16.5205 16.0117C17.6557 15.6327 18.8445 15.4388 20.0413 15.4375C21.0487 15.436 22.0513 15.5746 23.0205 15.8492C23.5793 15.9974 24.1233 16.1969 24.6455 16.445Z" fill="#D5D5D5"/>
</svg>
