<svg width="22" height="22" viewBox="0 0 22 22" fill="none" xmlns="http://www.w3.org/2000/svg">
<path d="M19.3143 4.92546C17.8384 4.7788 16.3626 4.6688 14.8776 4.5863V4.57713L14.6759 3.38546C14.5384 2.54213 14.3368 1.27713 12.1918 1.27713H9.7901C7.65427 1.27713 7.4526 2.48713 7.30594 3.3763L7.11344 4.54963C6.26094 4.60463 5.40844 4.65963 4.55594 4.74213L2.68594 4.92546C2.30094 4.96213 2.02594 5.3013 2.0626 5.67713C2.09927 6.05296 2.42927 6.32796 2.81427 6.2913L4.68427 6.10796C9.4876 5.6313 14.3276 5.81463 19.1859 6.30046C19.2134 6.30046 19.2318 6.30046 19.2593 6.30046C19.6076 6.30046 19.9101 6.03463 19.9468 5.67713C19.9743 5.3013 19.6993 4.96213 19.3143 4.92546Z" fill="#313131"/>
<path d="M17.6276 7.59296C17.4076 7.36379 17.1051 7.23546 16.7934 7.23546H5.20676C4.8951 7.23546 4.58343 7.36379 4.3726 7.59296C4.16176 7.82213 4.0426 8.13379 4.06093 8.45462L4.62926 17.8596C4.7301 19.253 4.85843 20.9946 8.0576 20.9946H13.9426C17.1418 20.9946 17.2701 19.2621 17.3709 17.8596L17.9393 8.46379C17.9576 8.13379 17.8384 7.82213 17.6276 7.59296Z" fill="#D5D5D5"/>
<path fill-rule="evenodd" clip-rule="evenodd" d="M8.78174 15.7146C8.78174 15.3349 9.08954 15.0271 9.46924 15.0271H12.5217C12.9014 15.0271 13.2092 15.3349 13.2092 15.7146C13.2092 16.0943 12.9014 16.4021 12.5217 16.4021H9.46924C9.08954 16.4021 8.78174 16.0943 8.78174 15.7146Z" fill="#313131"/>
<path fill-rule="evenodd" clip-rule="evenodd" d="M8.02075 12.048C8.02075 11.6683 8.32856 11.3605 8.70825 11.3605H13.2916C13.6713 11.3605 13.9791 11.6683 13.9791 12.048C13.9791 12.4277 13.6713 12.7355 13.2916 12.7355H8.70825C8.32856 12.7355 8.02075 12.4277 8.02075 12.048Z" fill="#313131"/>
</svg>
