<svg width="22" height="22" viewBox="0 0 22 22" fill="none" xmlns="http://www.w3.org/2000/svg">
<path d="M18.8232 3.17645C17.4809 1.83402 15.3202 1.83402 10.999 1.83402C6.67782 1.83402 4.51722 1.83402 3.1748 3.17645C2.48043 3.87081 2.14523 4.78408 1.9834 6.102C2.46985 5.56057 3.05434 5.10953 3.71067 4.77511C4.42703 4.4101 5.1941 4.26209 6.04341 4.1927C6.86394 4.12566 7.87358 4.12567 9.1081 4.12569H12.8899C14.1245 4.12567 15.1341 4.12566 15.9546 4.1927C16.804 4.26209 17.5711 4.4101 18.2874 4.77511C18.9437 5.10953 19.5282 5.56057 20.0146 6.102C19.8528 4.78408 19.5176 3.87081 18.8232 3.17645Z" fill="#313131"/>
<path fill-rule="evenodd" clip-rule="evenodd" d="M1.8335 12.8337C1.8335 10.2667 1.8335 8.98333 2.33305 8.0029C2.77247 7.14049 3.47363 6.43932 4.33604 5.99991C5.31647 5.50035 6.59992 5.50035 9.16683 5.50035H12.8335C15.4004 5.50035 16.6839 5.50035 17.6643 5.99991C18.5267 6.43932 19.2279 7.14049 19.6672 8.0029C20.1668 8.98333 20.1668 10.2667 20.1668 12.8337C20.1668 15.4006 20.1668 16.6841 19.6672 17.6645C19.2279 18.5269 18.5267 19.2281 17.6643 19.6674C16.6839 20.167 15.4004 20.167 12.8335 20.167H9.16683C6.59992 20.167 5.31647 20.167 4.33604 19.6674C3.47363 19.2281 2.77247 18.5269 2.33305 17.6645C1.8335 16.6841 1.8335 15.4006 1.8335 12.8337ZM11.4863 16.0698C11.3574 16.1988 11.1825 16.2712 11.0002 16.2712C10.8178 16.2712 10.6429 16.1988 10.5141 16.0698L8.22236 13.7781C7.95388 13.5096 7.95388 13.0744 8.22236 12.8059C8.49084 12.5374 8.92615 12.5374 9.1946 12.8059L10.3127 13.9239V10.0837C10.3127 9.704 10.6205 9.39619 11.0002 9.39619C11.3798 9.39619 11.6877 9.704 11.6877 10.0837V13.9239L12.8057 12.8059C13.0742 12.5374 13.5094 12.5374 13.7779 12.8059C14.0464 13.0744 14.0464 13.5096 13.7779 13.7781L11.4863 16.0698Z" fill="#D5D5D5"/>
<rect x="6.11133" y="6.11107" width="9.77778" height="13.4444" fill="#D5D5D5"/>
<path d="M9.04187 13.335L10.5419 14.835C10.5494 14.8425 10.5569 14.8425 10.5569 14.85C10.6019 14.895 10.6619 14.9325 10.7219 14.9625C10.7294 14.9625 10.7294 14.9625 10.7369 14.9625C10.7969 14.985 10.8569 14.9925 10.9169 15C10.9394 15 10.9544 15 10.9769 15C11.0219 15 11.0744 14.985 11.1194 14.97C11.1419 14.9625 11.1569 14.955 11.1719 14.9475C11.2319 14.9175 11.2919 14.8875 11.3369 14.835L12.8369 13.335C13.0544 13.1175 13.0544 12.7575 12.8369 12.54C12.6194 12.3225 12.2594 12.3225 12.0419 12.54L11.5019 13.08L11.5019 9.93747C11.5019 9.62997 11.2469 9.37497 10.9394 9.37497C10.6319 9.37497 10.3769 9.62997 10.3769 9.93747L10.3769 13.08L9.83687 12.54C9.72437 12.4275 9.58187 12.375 9.43937 12.375C9.29687 12.375 9.15437 12.4275 9.04187 12.54C8.82437 12.7575 8.82437 13.1175 9.04187 13.335Z" fill="#313131"/>
</svg>
