<svg width="42" height="42" viewBox="0 0 42 42" fill="none" xmlns="http://www.w3.org/2000/svg">
<g filter="url(#filter0_d_137_5558)">
<path d="M4 21C4 14.4531 4 11.1797 5.4736 8.77501C6.29816 7.42946 7.42946 6.29816 8.77501 5.4736C11.1797 4 14.4531 4 21 4C27.5469 4 30.8203 4 33.225 5.4736C34.5705 6.29816 35.7018 7.42946 36.5264 8.77501C38 11.1797 38 14.4531 38 21C38 27.5469 38 30.8203 36.5264 33.225C35.7018 34.5705 34.5705 35.7018 33.225 36.5264C30.8203 38 27.5469 38 21 38C14.4531 38 11.1797 38 8.77501 36.5264C7.42946 35.7018 6.29816 34.5705 5.4736 33.225C4 30.8203 4 27.5469 4 21Z" fill="white" shape-rendering="crispEdges"/>
<g clip-path="url(#clip0_137_5558)">
<path d="M22.5203 12.75H15.9067C15.6875 12.75 15.4773 12.8378 15.3223 12.994C15.1673 13.1503 15.0803 13.3622 15.0803 13.5831V17.125L22.5203 21.5L26.2403 23.0825L29.9603 21.5V17.125L22.5203 12.75Z" fill="#21A366"/>
<path d="M15.0803 17.125H22.5203V21.5H15.0803V17.125Z" fill="#107C41"/>
<path d="M29.1338 12.75H22.5203V17.125H29.9603V13.5831C29.9603 13.3622 29.8732 13.1503 29.7182 12.994C29.5632 12.8378 29.353 12.75 29.1338 12.75Z" fill="#33C481"/>
<path d="M22.5203 21.5H15.0803V29.4169C15.0803 29.6378 15.1673 29.8497 15.3223 30.006C15.4773 30.1622 15.6875 30.25 15.9067 30.25H29.1338C29.353 30.25 29.5632 30.1622 29.7182 30.006C29.8732 29.8497 29.9603 29.6378 29.9603 29.4169V25.875L22.5203 21.5Z" fill="#185C37"/>
<path d="M22.5203 21.5H29.9603V25.875H22.5203V21.5Z" fill="#107C41"/>
<path opacity="0.1" d="M20.4538 15.875H15.0803V27.75H20.4538C20.6728 27.7493 20.8826 27.6614 21.0375 27.5053C21.1923 27.3492 21.2796 27.1376 21.2803 26.9169V16.7081C21.2796 16.4874 21.1923 16.2758 21.0375 16.1197C20.8826 15.9636 20.6728 15.8757 20.4538 15.875Z" fill="#1D1235"/>
<path opacity="0.2" d="M19.8338 16.5H15.0803V28.375H19.8338C20.0528 28.3743 20.2626 28.2864 20.4175 28.1303C20.5723 27.9742 20.6596 27.7626 20.6603 27.5419V17.3331C20.6596 17.1124 20.5723 16.9008 20.4175 16.7447C20.2626 16.5886 20.0528 16.5007 19.8338 16.5Z" fill="#1D1235"/>
<path opacity="0.2" d="M19.8338 16.5H15.0803V27.125H19.8338C20.0528 27.1243 20.2626 27.0364 20.4175 26.8803C20.5723 26.7242 20.6596 26.5126 20.6603 26.2919V17.3331C20.6596 17.1124 20.5723 16.9008 20.4175 16.7447C20.2626 16.5886 20.0528 16.5007 19.8338 16.5Z" fill="#1D1235"/>
<path opacity="0.2" d="M19.2138 16.5H15.0803V27.125H19.2138C19.4328 27.1243 19.6426 27.0364 19.7975 26.8803C19.9523 26.7242 20.0396 26.5126 20.0403 26.2919V17.3331C20.0396 17.1124 19.9523 16.9008 19.7975 16.7447C19.6426 16.5886 19.4328 16.5007 19.2138 16.5Z" fill="#1D1235"/>
<path d="M10.9465 16.5H19.2135C19.4327 16.5 19.6429 16.5878 19.7979 16.744C19.9529 16.9003 20.04 17.1122 20.04 17.3331V25.6669C20.04 25.8878 19.9529 26.0997 19.7979 26.256C19.6429 26.4122 19.4327 26.5 19.2135 26.5H10.9465C10.7273 26.5 10.5171 26.4122 10.3621 26.256C10.2071 26.0997 10.12 25.8878 10.12 25.6669V17.3331C10.12 17.1122 10.2071 16.9003 10.3621 16.744C10.5171 16.5878 10.7273 16.5 10.9465 16.5Z" fill="#107C41"/>
<path d="M12.3104 24.625L14.3167 21.4913L12.4791 18.375H13.9578L14.9609 20.3669C15.0531 20.5556 15.1165 20.6965 15.1513 20.7894H15.1643C15.2304 20.6385 15.2997 20.4919 15.372 20.3494L16.444 18.375H17.8011L15.9163 21.4738L17.8489 24.625H16.4043L15.2455 22.4375C15.1909 22.3443 15.1446 22.2464 15.1072 22.145H15.0899C15.0561 22.2442 15.0111 22.3392 14.956 22.4281L13.7637 24.625H12.3104Z" fill="white"/>
</g>
</g>
<defs>
<filter id="filter0_d_137_5558" x="0" y="0" width="42" height="42" filterUnits="userSpaceOnUse" color-interpolation-filters="sRGB">
<feFlood flood-opacity="0" result="BackgroundImageFix"/>
<feColorMatrix in="SourceAlpha" type="matrix" values="0 0 0 0 0 0 0 0 0 0 0 0 0 0 0 0 0 0 127 0" result="hardAlpha"/>
<feOffset/>
<feGaussianBlur stdDeviation="2"/>
<feComposite in2="hardAlpha" operator="out"/>
<feColorMatrix type="matrix" values="0 0 0 0 0 0 0 0 0 0 0 0 0 0 0 0 0 0 0.14 0"/>
<feBlend mode="normal" in2="BackgroundImageFix" result="effect1_dropShadow_137_5558"/>
<feBlend mode="normal" in="SourceGraphic" in2="effect1_dropShadow_137_5558" result="shape"/>
</filter>
<clipPath id="clip0_137_5558">
<rect width="20" height="20" fill="white" transform="translate(10 11.5)"/>
</clipPath>
</defs>
</svg>
