<svg width="20" height="20" viewBox="0 0 20 20" fill="none" xmlns="http://www.w3.org/2000/svg">
<path d="M10.2581 10.0002C10.2581 8.2907 11.6438 6.90489 13.3533 6.90489C15.0627 6.90489 16.4485 8.29074 16.4485 10.0002C16.4485 11.7097 15.0627 13.0955 13.3533 13.0955C11.6438 13.0955 10.2581 11.7097 10.2581 10.0002Z" fill="#00BCFF"/>
<path d="M4.06744 16.1904C4.06744 14.4809 5.45322 13.0951 7.16266 13.0951L8.81214 12.2243L10.2579 13.0951V16.1904C10.2579 17.8999 8.8721 19.2857 7.16266 19.2857C5.45322 19.2857 4.06744 17.8999 4.06744 16.1904Z" fill="#00CF7F"/>
<path d="M10.2582 0.714287L8.57391 3.64043L10.2582 6.90486H13.31C15.0195 6.90486 16.4052 5.51905 16.4052 3.80957C16.4052 2.1001 15.0194 0.714287 13.31 0.714287H10.2582Z" fill="#FF7361"/>
<path d="M4.02411 3.80952C4.02411 5.519 5.40989 6.90481 7.11933 6.90481L8.76126 7.53901L10.258 6.90481V0.714233H7.11929C5.40989 0.714233 4.02411 2.10005 4.02411 3.80952Z" fill="#FF4D12"/>
<path d="M4.06744 10.0002C4.06744 11.7097 5.45322 13.0955 7.16266 13.0955H10.2579V6.90489H7.16266C5.45322 6.90489 4.06744 8.29074 4.06744 10.0002Z" fill="#B659FF"/>
</svg>
