<svg width="20" height="20" viewBox="0 0 20 20" fill="none" xmlns="http://www.w3.org/2000/svg">
<path d="M3.24072 8.05245C3.66109 8.33333 4.24628 8.33333 5.41667 8.33333C6.58706 8.33333 7.17225 8.33333 7.59262 8.05245C7.77461 7.93085 7.93086 7.7746 8.05245 7.59262C8.33333 7.17224 8.33333 6.58705 8.33333 5.41667C8.33333 4.24628 8.33333 3.66109 8.05245 3.24072C7.93086 3.05873 7.77461 2.90248 7.59262 2.78088C7.17225 2.5 6.58706 2.5 5.41667 2.5C4.24628 2.5 3.66109 2.5 3.24072 2.78088C3.05873 2.90248 2.90248 3.05873 2.78089 3.24072C2.5 3.66109 2.5 4.24628 2.5 5.41667C2.5 6.58705 2.5 7.17224 2.78089 7.59262C2.90248 7.7746 3.05873 7.93085 3.24072 8.05245Z" stroke="#0000FF" stroke-width="1.25" stroke-linejoin="round"/>
<path d="M12.4077 8.05245C12.8281 8.33333 13.4132 8.33333 14.5837 8.33333C15.754 8.33333 16.3392 8.33333 16.7596 8.05245C16.9416 7.93085 17.0978 7.7746 17.2194 7.59262C17.5003 7.17224 17.5003 6.58705 17.5003 5.41667C17.5003 4.24628 17.5003 3.66109 17.2194 3.24072C17.0978 3.05873 16.9416 2.90248 16.7596 2.78088C16.3392 2.5 15.754 2.5 14.5837 2.5C13.4132 2.5 12.8281 2.5 12.4077 2.78088C12.2257 2.90248 12.0695 3.05873 11.9478 3.24072C11.667 3.66109 11.667 4.24628 11.667 5.41667C11.667 6.58705 11.667 7.17224 11.9478 7.59262C12.0695 7.7746 12.2257 7.93085 12.4077 8.05245Z" stroke="#0000FF" stroke-width="1.25" stroke-linejoin="round"/>
<path d="M3.24072 17.2191C3.66109 17.5 4.24628 17.5 5.41667 17.5C6.58706 17.5 7.17225 17.5 7.59262 17.2191C7.77461 17.0975 7.93086 16.9413 8.05245 16.7593C8.33333 16.3389 8.33333 15.7538 8.33333 14.5833C8.33333 13.4129 8.33333 12.8278 8.05245 12.4074C7.93086 12.2254 7.77461 12.0692 7.59262 11.9476C7.17225 11.6667 6.58706 11.6667 5.41667 11.6667C4.24628 11.6667 3.66109 11.6667 3.24072 11.9476C3.05873 12.0692 2.90248 12.2254 2.78089 12.4074C2.5 12.8278 2.5 13.4129 2.5 14.5833C2.5 15.7538 2.5 16.3389 2.78089 16.7593C2.90248 16.9413 3.05873 17.0975 3.24072 17.2191Z" stroke="#0000FF" stroke-width="1.25" stroke-linejoin="round"/>
<path d="M12.4077 17.2192C12.8281 17.5001 13.4132 17.5001 14.5837 17.5001C15.754 17.5001 16.3392 17.5001 16.7596 17.2192C16.9416 17.0976 17.0978 16.9413 17.2194 16.7593C17.5003 16.339 17.5003 15.7538 17.5003 14.5834C17.5003 13.413 17.5003 12.8278 17.2194 12.4075C17.0978 12.2255 16.9416 12.0692 16.7596 11.9477C16.3392 11.6667 15.754 11.6667 14.5837 11.6667C13.4132 11.6667 12.8281 11.6667 12.4077 11.9477C12.2257 12.0692 12.0695 12.2255 11.9478 12.4075C11.667 12.8278 11.667 13.413 11.667 14.5834C11.667 15.7538 11.667 16.339 11.9478 16.7593C12.0695 16.9413 12.2257 17.0976 12.4077 17.2192Z" stroke="#0000FF" stroke-width="1.25" stroke-linejoin="round"/>
</svg>
