<svg width="20" height="20" viewBox="0 0 20 20" fill="none" xmlns="http://www.w3.org/2000/svg">
<path d="M9.16699 4.58325H17.5003" stroke="#707070" stroke-width="1.25" stroke-linecap="round"/>
<path d="M4.5 14.0772C5.38889 14.6725 5.83333 14.9702 5.83333 15.4167C5.83333 15.8632 5.38889 16.1608 4.5 16.7562C3.61111 17.3515 3.16667 17.6491 2.83333 17.4259C2.5 17.2027 2.5 16.6073 2.5 15.4167C2.5 14.226 2.5 13.6307 2.83333 13.4074C3.16667 13.1843 3.61111 13.4818 4.5 14.0772Z" stroke="#707070" stroke-width="1.25" stroke-linecap="round"/>
<path d="M4.5 3.24386C5.38889 3.83918 5.83333 4.13684 5.83333 4.58333C5.83333 5.02982 5.38889 5.32748 4.5 5.92281C3.61111 6.51813 3.16667 6.81579 2.83333 6.59254C2.5 6.3693 2.5 5.77397 2.5 4.58333C2.5 3.39269 2.5 2.79737 2.83333 2.57412C3.16667 2.35087 3.61111 2.64853 4.5 3.24386Z" stroke="#707070" stroke-width="1.25" stroke-linecap="round"/>
<path d="M9.16699 10H17.5003" stroke="#707070" stroke-width="1.25" stroke-linecap="round"/>
<path d="M9.16699 15.4167H17.5003" stroke="#707070" stroke-width="1.25" stroke-linecap="round"/>
</svg>
