<svg width="22" height="22" viewBox="0 0 22 22" fill="none" xmlns="http://www.w3.org/2000/svg">
<path d="M18.7917 9.34084H16.1426C13.9701 9.34084 12.2009 7.57167 12.2009 5.39917V2.75C12.2009 2.24584 11.7884 1.83334 11.2842 1.83334H7.39758C4.57425 1.83334 2.29175 3.66667 2.29175 6.93917V15.0608C2.29175 18.3333 4.57425 20.1667 7.39758 20.1667H14.6026C17.4259 20.1667 19.7084 18.3333 19.7084 15.0608V10.2575C19.7084 9.75334 19.2959 9.34084 18.7917 9.34084Z" fill="#D5D5D5"/>
<path d="M14.4835 2.02583C14.1076 1.65 13.4568 1.90667 13.4568 2.42917V5.62833C13.4568 6.96667 14.5935 8.07583 15.9776 8.07583C16.8485 8.085 18.0585 8.085 19.0943 8.085C19.6168 8.085 19.8918 7.47083 19.5251 7.10417C18.2051 5.775 15.8401 3.3825 14.4835 2.02583Z" fill="#313131"/>
<path d="M10.5692 11.4308L8.73582 9.5975C8.72665 9.58833 8.71749 9.58833 8.71749 9.57916C8.66249 9.52416 8.58915 9.47833 8.51582 9.44166C8.50665 9.44166 8.50665 9.44166 8.49749 9.44166C8.42415 9.41416 8.35082 9.40499 8.27749 9.39583C8.24999 9.39583 8.23165 9.39583 8.20415 9.39583C8.14915 9.39583 8.08499 9.41416 8.02999 9.43249C8.00249 9.44166 7.98415 9.45083 7.96582 9.45999C7.89249 9.49666 7.81915 9.53333 7.76415 9.5975L5.93082 11.4308C5.66499 11.6967 5.66499 12.1367 5.93082 12.4025C6.19665 12.6683 6.63665 12.6683 6.90249 12.4025L7.56249 11.7425V15.5833C7.56249 15.9592 7.87415 16.2708 8.24999 16.2708C8.62582 16.2708 8.93749 15.9592 8.93749 15.5833V11.7425L9.59749 12.4025C9.73499 12.54 9.90915 12.6042 10.0833 12.6042C10.2575 12.6042 10.4317 12.54 10.5692 12.4025C10.835 12.1367 10.835 11.6967 10.5692 11.4308Z" fill="#313131"/>
</svg>
