<svg width="22" height="22" viewBox="0 0 22 22" fill="none" xmlns="http://www.w3.org/2000/svg">
<path d="M9.16659 1.83325H4.58325C3.85391 1.83325 3.15443 2.12298 2.63871 2.63871C2.12298 3.15443 1.83325 3.85391 1.83325 4.58325V17.4166C1.83325 18.1459 2.12298 18.8454 2.63871 19.3611C3.15443 19.8769 3.85391 20.1666 4.58325 20.1666H13.7499C14.4793 20.1666 15.1787 19.8769 15.6945 19.3611C16.2102 18.8454 16.4999 18.1459 16.4999 17.4166V16.3423L15.0461 17.7961C14.7023 18.1399 14.2361 18.3332 13.7499 18.3333H11.9166C11.4304 18.3333 10.964 18.1401 10.6202 17.7963C10.2764 17.4525 10.0833 16.9862 10.0833 16.4999V14.6666C10.0834 14.1804 10.2766 13.7142 10.6204 13.3704L15.7409 8.24992H11.9166C11.1872 8.24992 10.4878 7.96019 9.97204 7.44446C9.45632 6.92874 9.16659 6.22926 9.16659 5.49992V1.83325Z" fill="#D5D5D5"/>
<path d="M11 5.50001V2.93701L14.9774 6.41668H11.9167C11.6736 6.41668 11.4404 6.3201 11.2685 6.14819C11.0966 5.97628 11 5.74313 11 5.50001ZM16.7686 8.5186C16.9405 8.34675 17.1736 8.25021 17.4167 8.25021C17.6597 8.25021 17.8928 8.34675 18.0648 8.5186L19.8981 10.3519C20.0699 10.5238 20.1665 10.7569 20.1665 11C20.1665 11.2431 20.0699 11.4762 19.8981 11.6481L14.3981 17.1481C14.2262 17.32 13.9931 17.4166 13.75 17.4167H11.9167C11.6736 17.4167 11.4404 17.3201 11.2685 17.1482C11.0966 16.9763 11 16.7431 11 16.5V14.6667C11.0001 14.4236 11.0967 14.1905 11.2686 14.0186L16.7686 8.5186Z" fill="#313131"/>
</svg>
