<svg width="14" height="14" viewBox="0 0 14 14" fill="none" xmlns="http://www.w3.org/2000/svg">
<path d="M11.6667 7.58334V6.21653C11.6667 5.73963 11.6667 5.50119 11.5779 5.28679C11.4891 5.07239 11.3205 4.90379 10.9833 4.56659L8.22032 1.8036C7.92929 1.51259 7.78381 1.36708 7.6035 1.28086C7.56599 1.26292 7.52761 1.24701 7.48841 1.23318C7.29993 1.16667 7.09419 1.16667 6.68259 1.16667C4.78969 1.16667 3.84322 1.16667 3.20215 1.68355C3.07264 1.78797 2.95467 1.90594 2.85025 2.03545C2.33337 2.67652 2.33337 3.62298 2.33337 5.51591V8.16667C2.33337 10.3665 2.33337 11.4665 3.01679 12.1499C3.63693 12.77 4.60003 12.8275 6.41671 12.8328M7.58337 1.45834V1.75001C7.58337 3.39992 7.58337 4.22488 8.09595 4.73744C8.60852 5.25 9.43347 5.25 11.0834 5.25H11.375" stroke="white" stroke-linecap="round" stroke-linejoin="round"/>
<path d="M11.6667 12.8333L10.4142 11.5809M10.4142 11.5809C10.481 11.5141 10.5431 11.4426 10.6 11.3668C10.8512 11.0326 11 10.617 11 10.1667C11 9.06209 10.1046 8.16667 9.00002 8.16667C7.89542 8.16667 7 9.06209 7 10.1667C7 11.2712 7.89542 12.1666 9.00002 12.1666C9.55226 12.1666 10.0523 11.9428 10.4142 11.5809Z" stroke="white" stroke-linecap="round" stroke-linejoin="round"/>
</svg>
