<svg width="12" height="12" viewBox="0 0 12 12" fill="none" xmlns="http://www.w3.org/2000/svg">
<g opacity="0.5">
<path d="M6.5 3.5C6.5 4.60457 5.60455 5.5 4.5 5.5C3.39543 5.5 2.5 4.60457 2.5 3.5C2.5 2.39543 3.39543 1.5 4.5 1.5C5.60455 1.5 6.5 2.39543 6.5 3.5Z" stroke="#707070"/>
<path d="M7.5 5.5C8.60455 5.5 9.5 4.60457 9.5 3.5C9.5 2.39543 8.60455 1.5 7.5 1.5" stroke="#707070" stroke-linecap="round" stroke-linejoin="round"/>
<path d="M5.5 7H3.5C2.11929 7 1 8.1193 1 9.5C1 10.0523 1.44772 10.5 2 10.5H7C7.5523 10.5 8 10.0523 8 9.5C8 8.1193 6.8807 7 5.5 7Z" stroke="#707070" stroke-linejoin="round"/>
<path d="M8.5 7C9.8807 7 11 8.1193 11 9.5C11 10.0523 10.5523 10.5 10 10.5H9.25" stroke="#707070" stroke-linecap="round" stroke-linejoin="round"/>
</g>
</svg>
