<svg width="52" height="52" viewBox="0 0 52 52" fill="none" xmlns="http://www.w3.org/2000/svg">
<g filter="url(#filter0_d_126_1681)">
<path d="M4 24C4 14.5719 4 9.85786 6.92893 6.92893C9.85786 4 14.5719 4 24 4H28C37.4281 4 42.1421 4 45.0711 6.92893C48 9.85786 48 14.5719 48 24V28C48 37.4281 48 42.1421 45.0711 45.0711C42.1421 48 37.4281 48 28 48H24C14.5719 48 9.85786 48 6.92893 45.0711C4 42.1421 4 37.4281 4 28V24Z" fill="white" shape-rendering="crispEdges"/>
<g clip-path="url(#clip0_126_1681)">
<path d="M37.7873 14.25H19.2693C18.9625 14.25 18.6682 14.3729 18.4512 14.5916C18.2342 14.8104 18.1123 15.107 18.1123 15.4164V20.375L28.5283 23.4375L38.9443 20.375V15.4164C38.9443 15.107 38.8224 14.8104 38.6054 14.5916C38.3884 14.3729 38.0941 14.25 37.7873 14.25Z" fill="#41A5EE"/>
<path d="M38.9443 20.375H18.1123V26.5L28.5283 29.5625L38.9443 26.5V20.375Z" fill="#2B7CD3"/>
<path d="M38.9443 26.5H18.1123V32.625L28.5283 35.6875L38.9443 32.625V26.5Z" fill="#185ABD"/>
<path d="M38.9443 32.625H18.1123V37.5836C18.1123 37.893 18.2342 38.1896 18.4512 38.4084C18.6682 38.6271 18.9625 38.75 19.2693 38.75H37.7873C38.0941 38.75 38.3884 38.6271 38.6054 38.4084C38.8224 38.1896 38.9443 37.893 38.9443 37.5836V32.625Z" fill="#103F91"/>
<path opacity="0.1" d="M25.6353 18.625H18.1123V35.25H25.6353C25.9418 35.2491 26.2356 35.1259 26.4524 34.9074C26.6692 34.6888 26.7914 34.3927 26.7923 34.0836V19.7914C26.7914 19.4823 26.6692 19.1862 26.4524 18.9676C26.2356 18.7491 25.9418 18.6259 25.6353 18.625Z" fill="#1D1235"/>
<path opacity="0.2" d="M24.7673 19.5H18.1123V36.125H24.7673C25.0738 36.1241 25.3676 36.0009 25.5844 35.7824C25.8012 35.5638 25.9234 35.2677 25.9243 34.9586V20.6664C25.9234 20.3573 25.8012 20.0612 25.5844 19.8426C25.3676 19.6241 25.0738 19.5009 24.7673 19.5Z" fill="#1D1235"/>
<path opacity="0.2" d="M24.7673 19.5H18.1123V34.375H24.7673C25.0738 34.3741 25.3676 34.2509 25.5844 34.0324C25.8012 33.8138 25.9234 33.5177 25.9243 33.2086V20.6664C25.9234 20.3573 25.8012 20.0612 25.5844 19.8426C25.3676 19.6241 25.0738 19.5009 24.7673 19.5Z" fill="#1D1235"/>
<path opacity="0.2" d="M23.8993 19.5H18.1123V34.375H23.8993C24.2058 34.3741 24.4996 34.2509 24.7164 34.0324C24.9332 33.8138 25.0554 33.5177 25.0563 33.2086V20.6664C25.0554 20.3573 24.9332 20.0612 24.7164 19.8426C24.4996 19.6241 24.2058 19.5009 23.8993 19.5Z" fill="#1D1235"/>
<path d="M12.325 19.5H23.8989C24.2058 19.5 24.5001 19.6229 24.7171 19.8416C24.9341 20.0604 25.056 20.357 25.056 20.6664V32.3336C25.056 32.643 24.9341 32.9396 24.7171 33.1584C24.5001 33.3771 24.2058 33.5 23.8989 33.5H12.325C12.0181 33.5 11.7238 33.3771 11.5069 33.1584C11.2899 32.9396 11.168 32.643 11.168 32.3336V20.6664C11.168 20.357 11.2899 20.0604 11.5069 19.8416C11.7238 19.6229 12.0181 19.5 12.325 19.5Z" fill="#185ABD"/>
<path d="M21.5405 30.875H19.9781L18.1553 24.8375L16.2457 30.875H14.6833L12.9473 22.125H14.5097L15.7249 28.25L17.5477 22.3H18.8497L20.5857 28.25L21.8009 22.125H23.2765L21.5405 30.875Z" fill="white"/>
</g>
</g>
<defs>
<filter id="filter0_d_126_1681" x="0" y="0" width="52" height="52" filterUnits="userSpaceOnUse" color-interpolation-filters="sRGB">
<feFlood flood-opacity="0" result="BackgroundImageFix"/>
<feColorMatrix in="SourceAlpha" type="matrix" values="0 0 0 0 0 0 0 0 0 0 0 0 0 0 0 0 0 0 127 0" result="hardAlpha"/>
<feOffset/>
<feGaussianBlur stdDeviation="2"/>
<feComposite in2="hardAlpha" operator="out"/>
<feColorMatrix type="matrix" values="0 0 0 0 0 0 0 0 0 0 0 0 0 0 0 0 0 0 0.14 0"/>
<feBlend mode="normal" in2="BackgroundImageFix" result="effect1_dropShadow_126_1681"/>
<feBlend mode="normal" in="SourceGraphic" in2="effect1_dropShadow_126_1681" result="shape"/>
</filter>
<clipPath id="clip0_126_1681">
<rect width="28" height="28" fill="white" transform="translate(11 12.5)"/>
</clipPath>
</defs>
</svg>
