<svg width="44" height="44" viewBox="0 0 44 44" fill="none" xmlns="http://www.w3.org/2000/svg">
<g filter="url(#filter0_d_153_5970)">
<rect x="5" y="5" width="34" height="34" rx="17" fill="white" shape-rendering="crispEdges"/>
<path d="M25.4769 14.77H18.5238C15.65 14.77 13.3125 17.1075 13.3125 19.9813V21.3488C13.3125 24.2219 15.65 26.5594 18.5231 26.5594H18.7256L18.3881 28.395C18.3356 28.6825 18.4619 28.9688 18.7106 29.1238C18.8313 29.199 18.9719 29.2361 19.114 29.2301C19.2561 29.224 19.393 29.1752 19.5069 29.09L22.8931 26.56H25.4763C28.3494 26.56 30.6869 24.2225 30.6869 21.3494V19.9813C30.6875 17.1075 28.35 14.77 25.4769 14.77ZM29.5625 21.3481C29.5613 22.4315 29.1305 23.4702 28.3644 24.2363C27.5983 25.0023 26.5596 25.4332 25.4763 25.4344H22.7063C22.5849 25.4345 22.4667 25.4738 22.3694 25.5463L19.6875 27.55L19.9544 26.0981C19.9691 26.017 19.9658 25.9337 19.9449 25.854C19.9239 25.7743 19.8857 25.7002 19.8329 25.6368C19.7802 25.5735 19.7142 25.5225 19.6396 25.4874C19.565 25.4523 19.4837 25.434 19.4013 25.4338H18.5231C17.4397 25.4326 16.4011 25.0017 15.635 24.2357C14.8689 23.4696 14.438 22.4309 14.4369 21.3475V19.9813C14.438 18.8979 14.8689 17.8592 15.635 17.0931C16.4011 16.3271 17.4397 15.8962 18.5231 15.895H25.4763C26.5596 15.8962 27.5983 16.3271 28.3644 17.0931C29.1305 17.8592 29.5613 18.8979 29.5625 19.9813V21.3481Z" fill="#313131"/>
<path d="M18.7125 19.7593C18.5917 19.7562 18.4714 19.7772 18.3589 19.8213C18.2464 19.8653 18.1438 19.9314 18.0572 20.0157C17.9707 20.1001 17.9019 20.2009 17.8549 20.3122C17.8079 20.4236 17.7837 20.5432 17.7837 20.664C17.7837 20.7849 17.8079 20.9045 17.8549 21.0158C17.9019 21.1272 17.9707 21.228 18.0572 21.3123C18.1438 21.3966 18.2464 21.4628 18.3589 21.5068C18.4714 21.5508 18.5917 21.5719 18.7125 21.5687C18.9483 21.5625 19.1724 21.4645 19.337 21.2955C19.5016 21.1265 19.5937 20.8999 19.5937 20.664C19.5937 20.4281 19.5016 20.2016 19.337 20.0326C19.1724 19.8636 18.9483 19.7655 18.7125 19.7593ZM22 19.7593C21.8792 19.7562 21.7589 19.7772 21.6464 19.8213C21.5339 19.8653 21.4313 19.9314 21.3447 20.0157C21.2582 20.1001 21.1894 20.2009 21.1424 20.3122C21.0954 20.4236 21.0712 20.5432 21.0712 20.664C21.0712 20.7849 21.0954 20.9045 21.1424 21.0158C21.1894 21.1272 21.2582 21.228 21.3447 21.3123C21.4313 21.3966 21.5339 21.4628 21.6464 21.5068C21.7589 21.5508 21.8792 21.5719 22 21.5687C22.2358 21.5625 22.4599 21.4645 22.6245 21.2955C22.7891 21.1265 22.8812 20.8999 22.8812 20.664C22.8812 20.4281 22.7891 20.2016 22.6245 20.0326C22.4599 19.8636 22.2358 19.7655 22 19.7593ZM25.2875 19.7593C25.1667 19.7562 25.0464 19.7772 24.9339 19.8213C24.8214 19.8653 24.7188 19.9314 24.6322 20.0157C24.5457 20.1001 24.4769 20.2009 24.4299 20.3122C24.3829 20.4236 24.3587 20.5432 24.3587 20.664C24.3587 20.7849 24.3829 20.9045 24.4299 21.0158C24.4769 21.1272 24.5457 21.228 24.6322 21.3123C24.7188 21.3966 24.8214 21.4628 24.9339 21.5068C25.0464 21.5508 25.1667 21.5719 25.2875 21.5687C25.5233 21.5625 25.7474 21.4645 25.912 21.2955C26.0766 21.1265 26.1687 20.8999 26.1687 20.664C26.1687 20.4281 26.0766 20.2016 25.912 20.0326C25.7474 19.8636 25.5233 19.7655 25.2875 19.7593Z" fill="#313131"/>
</g>
<defs>
<filter id="filter0_d_153_5970" x="0" y="0" width="44" height="44" filterUnits="userSpaceOnUse" color-interpolation-filters="sRGB">
<feFlood flood-opacity="0" result="BackgroundImageFix"/>
<feColorMatrix in="SourceAlpha" type="matrix" values="0 0 0 0 0 0 0 0 0 0 0 0 0 0 0 0 0 0 127 0" result="hardAlpha"/>
<feOffset/>
<feGaussianBlur stdDeviation="2.5"/>
<feComposite in2="hardAlpha" operator="out"/>
<feColorMatrix type="matrix" values="0 0 0 0 0 0 0 0 0 0 0 0 0 0 0 0 0 0 0.1 0"/>
<feBlend mode="normal" in2="BackgroundImageFix" result="effect1_dropShadow_153_5970"/>
<feBlend mode="normal" in="SourceGraphic" in2="effect1_dropShadow_153_5970" result="shape"/>
</filter>
</defs>
</svg>
