<svg width="44" height="44" viewBox="0 0 44 44" fill="none" xmlns="http://www.w3.org/2000/svg">
<g filter="url(#filter0_d_115_41)">
<rect x="5" y="5" width="34" height="34" rx="17" fill="white" shape-rendering="crispEdges"/>
<g clip-path="url(#clip0_115_41)">
<path d="M14.69 19.1225C14.3621 19.5408 14.2049 19.9891 14.225 20.4509C14.245 20.9594 14.4726 21.3576 14.6599 21.6018C14.4424 22.1439 14.3588 22.9971 15.0848 23.6596C15.6168 24.1447 16.5202 24.3622 17.7716 24.302C18.6516 24.2618 19.3877 24.0979 19.4178 24.0912H19.4211C19.5884 24.0611 19.7657 24.0243 19.9464 23.9841C19.9598 24.1982 19.923 24.7302 19.5282 25.9281C19.0598 27.3534 19.0865 28.4442 19.6152 29.1736C20.1706 29.9398 21.0572 30 21.3182 30C21.5692 30 21.8 29.8963 21.964 29.7056C22.3354 29.2739 22.2919 28.4776 22.245 28.1096C22.6867 26.9251 23.9247 24.0209 24.9719 23.2146C24.992 23.2012 25.0087 23.1844 25.0255 23.1677C25.3333 22.8432 25.5407 22.4918 25.6813 22.184C25.8787 22.2911 26.1028 22.3513 26.3437 22.3513H28.3847C29.1543 22.3513 29.7766 21.7256 29.7766 20.9594V15.5224C29.7766 14.7528 29.1509 14.1305 28.3847 14.1305H26.3437C26.046 14.1305 25.7682 14.2242 25.5407 14.3848L24.7544 14.2911C24.634 14.2744 22.4926 14.0033 20.2944 14.0468C19.8962 14.0167 19.5215 14 19.1735 14C18.5746 14 18.0526 14.0468 17.6177 14.1405C16.5938 14.358 15.8946 14.793 15.5399 15.432C15.2689 15.9205 15.2689 16.4057 15.3124 16.7135C14.6465 17.3158 14.5294 17.9816 14.5529 18.45C14.5662 18.721 14.6265 18.9519 14.69 19.1225ZM28.3847 15.0339C28.6557 15.0339 28.8732 15.2547 28.8732 15.5224V20.9628C28.8732 21.2338 28.6524 21.4513 28.3847 21.4513H26.3437C26.0727 21.4513 25.8552 21.2304 25.8552 20.9628V15.5257C25.8552 15.2547 26.0761 15.0372 26.3437 15.0372H28.3847V15.0339ZM15.5466 19.514C15.6871 19.3668 15.7139 19.1426 15.6068 18.9686C15.6068 18.9653 15.4696 18.7311 15.4529 18.4099C15.4295 17.9716 15.6403 17.5834 16.0819 17.2522C16.2392 17.1317 16.3027 16.9243 16.2358 16.7369C16.2358 16.7336 16.092 16.2919 16.3262 15.8737C16.5503 15.4722 17.0489 15.1844 17.805 15.0238C18.4107 14.8934 19.2337 14.8699 20.2442 14.9502H20.291C22.4424 14.9034 24.6173 15.1844 24.6407 15.1878H24.644L24.982 15.2279C24.9619 15.3216 24.9519 15.422 24.9519 15.5224V20.9628C24.9519 21.1067 24.9753 21.2472 25.0154 21.3777C24.9552 21.6018 24.7879 22.1004 24.3931 22.5253C22.8908 23.7164 21.4219 27.7348 21.3584 27.9088C21.3316 27.9791 21.3249 28.056 21.3383 28.133C21.3952 28.5077 21.3751 28.9661 21.2948 29.1033C21.1175 29.1 20.639 29.0498 20.3513 28.6516C20.01 28.1798 20.0234 27.3367 20.3914 26.2192C20.9535 24.5161 21.0004 23.6194 20.5554 23.2246C20.3345 23.0272 20.0401 23.0171 19.826 23.0941C19.6219 23.1409 19.4278 23.1811 19.2438 23.2112C19.2304 23.2146 19.2137 23.2179 19.2003 23.2212C18.1731 23.4454 16.3329 23.5826 15.6938 23.0004C15.1518 22.5052 15.5365 21.8494 15.58 21.7792C15.7038 21.5918 15.667 21.3476 15.4997 21.197C15.4964 21.1936 15.1451 20.8624 15.1283 20.4174C15.115 20.1196 15.2555 19.8151 15.5466 19.514Z" fill="black"/>
</g>
</g>
<defs>
<filter id="filter0_d_115_41" x="0" y="0" width="44" height="44" filterUnits="userSpaceOnUse" color-interpolation-filters="sRGB">
<feFlood flood-opacity="0" result="BackgroundImageFix"/>
<feColorMatrix in="SourceAlpha" type="matrix" values="0 0 0 0 0 0 0 0 0 0 0 0 0 0 0 0 0 0 127 0" result="hardAlpha"/>
<feOffset/>
<feGaussianBlur stdDeviation="2.5"/>
<feComposite in2="hardAlpha" operator="out"/>
<feColorMatrix type="matrix" values="0 0 0 0 0 0 0 0 0 0 0 0 0 0 0 0 0 0 0.1 0"/>
<feBlend mode="normal" in2="BackgroundImageFix" result="effect1_dropShadow_115_41"/>
<feBlend mode="normal" in="SourceGraphic" in2="effect1_dropShadow_115_41" result="shape"/>
</filter>
<clipPath id="clip0_115_41">
<rect width="16" height="16" fill="white" transform="matrix(-1 0 0 -1 30 30)"/>
</clipPath>
</defs>
</svg>
