<svg width="20" height="20" viewBox="0 0 20 20" fill="none" xmlns="http://www.w3.org/2000/svg">
<circle cx="10" cy="10" r="10" fill="white"/>
<g clip-path="url(#clip0_126_541)">
<path d="M9.99805 4.625C10.5227 4.625 10.9359 5.02126 11.1997 5.55595L12.0808 7.33258C12.1075 7.38756 12.1708 7.46499 12.266 7.53582C12.3611 7.60657 12.4543 7.6456 12.5155 7.6559L14.1103 7.92306C14.6864 8.01986 15.1693 8.30224 15.326 8.79395C15.4826 9.28525 15.2532 9.7958 14.8389 10.2108L14.8385 10.2112L13.5995 11.4604C13.5504 11.5099 13.4954 11.6032 13.4609 11.7247C13.4267 11.8454 13.4236 11.9553 13.4392 12.0263L13.4394 12.0273L13.7938 13.5727C13.9409 14.2158 13.8921 14.8536 13.4385 15.1871C12.9833 15.5216 12.3613 15.3733 11.7962 15.0368L10.3013 14.1445C10.2385 14.107 10.1307 14.0766 10.0005 14.0766C9.87135 14.0766 9.7613 14.1066 9.6944 14.1455L9.69345 14.146L8.20144 15.0366C7.63702 15.3743 7.01577 15.52 6.56055 15.1851C6.10724 14.8516 6.05607 14.215 6.20355 13.5723L6.55795 12.0273L6.55816 12.0263C6.5737 11.9553 6.57066 11.8454 6.5364 11.7247C6.5019 11.6032 6.44689 11.5099 6.39779 11.4604L5.15792 10.2103C4.74632 9.7953 4.5176 9.2852 4.67297 8.79462C4.82879 8.30262 5.31071 8.0199 5.88716 7.92303L7.48066 7.65609L7.48116 7.65601C7.53958 7.64587 7.63135 7.60728 7.72624 7.53634C7.8213 7.46527 7.88479 7.38767 7.91156 7.33258L7.91291 7.32983L8.79281 5.55548L8.79316 5.55478C9.0595 5.02054 9.474 4.625 9.99805 4.625Z" fill="#707070"/>
</g>
<defs>
<clipPath id="clip0_126_541">
<rect width="12" height="12" fill="white" transform="translate(4 4)"/>
</clipPath>
</defs>
</svg>
