<svg width="44" height="44" viewBox="0 0 44 44" fill="none" xmlns="http://www.w3.org/2000/svg">
<g filter="url(#filter0_d_115_38)">
<rect x="5" y="5" width="34" height="34" rx="17" fill="white" shape-rendering="crispEdges"/>
<g clip-path="url(#clip0_115_38)">
<path d="M29.31 24.8775C29.6379 24.4592 29.7951 24.0109 29.775 23.5491C29.755 23.0406 29.5274 22.6424 29.3401 22.3982C29.5576 21.8561 29.6412 21.0029 28.9152 20.3404C28.3832 19.8553 27.4798 19.6378 26.2284 19.698C25.3484 19.7382 24.6123 19.9021 24.5822 19.9088H24.5789C24.4116 19.9389 24.2343 19.9757 24.0536 20.0159C24.0402 19.8018 24.077 19.2698 24.4718 18.0719C24.9402 16.6466 24.9135 15.5558 24.3848 14.8264C23.8294 14.0602 22.9428 14 22.6818 14C22.4308 14 22.2 14.1037 22.036 14.2944C21.6646 14.7261 21.7081 15.5224 21.755 15.8904C21.3133 17.0749 20.0753 19.9791 19.0281 20.7854C19.008 20.7988 18.9913 20.8156 18.9745 20.8323C18.6667 21.1568 18.4593 21.5082 18.3187 21.816C18.1213 21.7089 17.8972 21.6487 17.6563 21.6487H15.6153C14.8457 21.6487 14.2234 22.2744 14.2234 23.0406V28.4776C14.2234 29.2472 14.8491 29.8695 15.6153 29.8695H17.6563C17.954 29.8695 18.2318 29.7758 18.4593 29.6152L19.2456 29.7089C19.366 29.7256 21.5074 29.9967 23.7056 29.9532C24.1038 29.9833 24.4785 30 24.8265 30C25.4254 30 25.9474 29.9532 26.3823 29.8595C27.4062 29.642 28.1054 29.207 28.4601 28.568C28.7311 28.0795 28.7311 27.5943 28.6876 27.2865C29.3535 26.6842 29.4706 26.0184 29.4471 25.55C29.4338 25.279 29.3735 25.0481 29.31 24.8775ZM15.6153 28.9661C15.3443 28.9661 15.1268 28.7453 15.1268 28.4776V23.0372C15.1268 22.7662 15.3476 22.5487 15.6153 22.5487H17.6563C17.9273 22.5487 18.1448 22.7696 18.1448 23.0372V28.4743C18.1448 28.7453 17.9239 28.9628 17.6563 28.9628H15.6153V28.9661ZM28.4534 24.486C28.3129 24.6332 28.2861 24.8574 28.3932 25.0314C28.3932 25.0347 28.5304 25.2689 28.5471 25.5901C28.5705 26.0284 28.3597 26.4166 27.9181 26.7478C27.7608 26.8683 27.6973 27.0757 27.7642 27.2631C27.7642 27.2664 27.908 27.7081 27.6738 28.1263C27.4497 28.5278 26.9511 28.8156 26.195 28.9762C25.5893 29.1066 24.7663 29.1301 23.7558 29.0498H23.709C21.5576 29.0966 19.3827 28.8156 19.3593 28.8122H19.356L19.018 28.7721C19.0381 28.6784 19.0481 28.578 19.0481 28.4776V23.0372C19.0481 22.8933 19.0247 22.7528 18.9846 22.6223C19.0448 22.3982 19.2121 21.8996 19.6069 21.4747C21.1092 20.2836 22.5781 16.2652 22.6416 16.0912C22.6684 16.0209 22.6751 15.944 22.6617 15.867C22.6048 15.4923 22.6249 15.0339 22.7052 14.8967C22.8825 14.9 23.361 14.9502 23.6487 15.3484C23.99 15.8202 23.9766 16.6633 23.6086 17.7808C23.0465 19.4839 22.9996 20.3806 23.4446 20.7754C23.6655 20.9728 23.9599 20.9829 24.174 20.9059C24.3781 20.8591 24.5722 20.8189 24.7562 20.7888C24.7696 20.7854 24.7863 20.7821 24.7997 20.7788C25.8269 20.5546 27.6671 20.4174 28.3062 20.9996C28.8482 21.4948 28.4635 22.1506 28.42 22.2208C28.2962 22.4082 28.333 22.6524 28.5003 22.803C28.5036 22.8064 28.8549 23.1376 28.8717 23.5826C28.885 23.8804 28.7445 24.1849 28.4534 24.486Z" fill="black"/>
</g>
</g>
<defs>
<filter id="filter0_d_115_38" x="0" y="0" width="44" height="44" filterUnits="userSpaceOnUse" color-interpolation-filters="sRGB">
<feFlood flood-opacity="0" result="BackgroundImageFix"/>
<feColorMatrix in="SourceAlpha" type="matrix" values="0 0 0 0 0 0 0 0 0 0 0 0 0 0 0 0 0 0 127 0" result="hardAlpha"/>
<feOffset/>
<feGaussianBlur stdDeviation="2.5"/>
<feComposite in2="hardAlpha" operator="out"/>
<feColorMatrix type="matrix" values="0 0 0 0 0 0 0 0 0 0 0 0 0 0 0 0 0 0 0.1 0"/>
<feBlend mode="normal" in2="BackgroundImageFix" result="effect1_dropShadow_115_38"/>
<feBlend mode="normal" in="SourceGraphic" in2="effect1_dropShadow_115_38" result="shape"/>
</filter>
<clipPath id="clip0_115_38">
<rect width="16" height="16" fill="white" transform="translate(14 14)"/>
</clipPath>
</defs>
</svg>
