<svg width="18" height="18" viewBox="0 0 18 18" fill="none" xmlns="http://www.w3.org/2000/svg">
<path d="M15.8025 4.02992C14.595 3.90992 13.3875 3.81992 12.1725 3.75242V3.74492L12.0075 2.76992C11.895 2.07992 11.73 1.04492 9.975 1.04492H8.01C6.2625 1.04492 6.0975 2.03492 5.9775 2.76242L5.82 3.72242C5.1225 3.76742 4.425 3.81242 3.7275 3.87992L2.1975 4.02992C1.8825 4.05992 1.6575 4.33742 1.6875 4.64492C1.7175 4.95242 1.9875 5.17742 2.3025 5.14742L3.8325 4.99742C7.7625 4.60742 11.7225 4.75742 15.6975 5.15492C15.72 5.15492 15.735 5.15492 15.7575 5.15492C16.0425 5.15492 16.29 4.93742 16.32 4.64492C16.3425 4.33742 16.1175 4.05992 15.8025 4.02992Z" fill="#313131"/>
<path d="M14.4226 6.21242C14.2426 6.02492 13.9951 5.91992 13.7401 5.91992H4.26006C4.00506 5.91992 3.75006 6.02492 3.57756 6.21242C3.40506 6.39992 3.30756 6.65492 3.32256 6.91742L3.78756 14.6124C3.87006 15.7524 3.97506 17.1774 6.59256 17.1774H11.4076C14.0251 17.1774 14.1301 15.7599 14.2126 14.6124L14.6776 6.92492C14.6926 6.65492 14.5951 6.39992 14.4226 6.21242Z" fill="#D5D5D5"/>
<path fill-rule="evenodd" clip-rule="evenodd" d="M7.18506 12.8574C7.18506 12.5468 7.4369 12.2949 7.74756 12.2949H10.2451C10.5557 12.2949 10.8076 12.5468 10.8076 12.8574C10.8076 13.1681 10.5557 13.4199 10.2451 13.4199H7.74756C7.4369 13.4199 7.18506 13.1681 7.18506 12.8574Z" fill="#313131"/>
<path fill-rule="evenodd" clip-rule="evenodd" d="M6.5625 9.85742C6.5625 9.54676 6.81434 9.29492 7.125 9.29492H10.875C11.1857 9.29492 11.4375 9.54676 11.4375 9.85742C11.4375 10.1681 11.1857 10.4199 10.875 10.4199H7.125C6.81434 10.4199 6.5625 10.1681 6.5625 9.85742Z" fill="#313131"/>
</svg>
