<svg width="18" height="18" viewBox="0 0 18 18" fill="none" xmlns="http://www.w3.org/2000/svg">
<path d="M15.4009 2.59896C14.3026 1.50061 12.5347 1.50061 8.99923 1.50061C5.4637 1.50061 3.69593 1.50061 2.59759 2.59896C2.02947 3.16707 1.75521 3.91429 1.6228 4.9926C2.02081 4.5496 2.49903 4.18057 3.03603 3.90696C3.62214 3.60831 4.24974 3.48721 4.94463 3.43044C5.61598 3.37559 6.44204 3.3756 7.4521 3.37561H10.5463C11.5564 3.3756 12.3825 3.37559 13.0538 3.43044C13.7488 3.48721 14.3764 3.60831 14.9624 3.90696C15.4994 4.18057 15.9777 4.5496 16.3756 4.9926C16.2433 3.91429 15.969 3.16707 15.4009 2.59896Z" fill="#313131"/>
<path fill-rule="evenodd" clip-rule="evenodd" d="M1.50012 10.5004C1.50012 8.40014 1.50012 7.35007 1.90885 6.5479C2.26837 5.8423 2.84205 5.26861 3.54766 4.90909C4.34983 4.50037 5.39993 4.50037 7.50012 4.50037H10.5001C12.6003 4.50037 13.6504 4.50037 14.4526 4.90909C15.1582 5.26861 15.7319 5.8423 16.0914 6.5479C16.5001 7.35007 16.5001 8.40014 16.5001 10.5004C16.5001 12.6006 16.5001 13.6507 16.0914 14.4529C15.7319 15.1585 15.1582 15.7321 14.4526 16.0916C13.6504 16.5004 12.6003 16.5004 10.5001 16.5004H7.50012C5.39993 16.5004 4.34983 16.5004 3.54766 16.0916C2.84205 15.7321 2.26837 15.1585 1.90885 14.4529C1.50012 13.6507 1.50012 12.6006 1.50012 10.5004ZM9.39785 13.1481C9.2924 13.2536 9.1493 13.3129 9.00012 13.3129C8.85095 13.3129 8.70785 13.2536 8.6024 13.1481L6.72738 11.2731C6.50771 11.0534 6.50771 10.6973 6.72738 10.4776C6.94704 10.258 7.3032 10.258 7.52285 10.4776L8.43762 11.3923V8.25037C8.43762 7.93972 8.68947 7.68787 9.00012 7.68787C9.31077 7.68787 9.56262 7.93972 9.56262 8.25037V11.3923L10.4774 10.4776C10.6971 10.258 11.0532 10.258 11.2728 10.4776C11.4925 10.6973 11.4925 11.0534 11.2728 11.2731L9.39785 13.1481Z" fill="#D5D5D5"/>
<rect x="5" y="5" width="8" height="11" fill="#D5D5D5"/>
<path d="M7.04187 11.335L8.54187 12.835C8.54937 12.8425 8.55687 12.8425 8.55687 12.85C8.60187 12.895 8.66187 12.9325 8.72187 12.9625C8.72937 12.9625 8.72937 12.9625 8.73687 12.9625C8.79687 12.985 8.85687 12.9925 8.91687 13C8.93937 13 8.95437 13 8.97687 13C9.02187 13 9.07437 12.985 9.11937 12.97C9.14187 12.9625 9.15688 12.955 9.17187 12.9475C9.23188 12.9175 9.29187 12.8875 9.33687 12.835L10.8369 11.335C11.0544 11.1175 11.0544 10.7575 10.8369 10.54C10.6194 10.3225 10.2594 10.3225 10.0419 10.54L9.50187 11.08L9.50187 7.9375C9.50187 7.63 9.24687 7.375 8.93937 7.375C8.63187 7.375 8.37687 7.63 8.37687 7.9375L8.37687 11.08L7.83687 10.54C7.72437 10.4275 7.58187 10.375 7.43937 10.375C7.29687 10.375 7.15437 10.4275 7.04187 10.54C6.82437 10.7575 6.82437 11.1175 7.04187 11.335Z" fill="#313131"/>
</svg>
