<svg width="18" height="18" viewBox="0 0 18 18" fill="none" xmlns="http://www.w3.org/2000/svg">
<path d="M2.59914 15.4012C3.69744 16.4995 5.46527 16.4995 9.00077 16.4995C12.5363 16.4995 14.3041 16.4995 15.4024 15.4012C15.9705 14.8331 16.2448 14.0858 16.3772 13.0075C15.9792 13.4505 15.501 13.8196 14.964 14.0932C14.3779 14.3918 13.7503 14.5129 13.0554 14.5697C12.384 14.6245 11.558 14.6245 10.5479 14.6245L7.45367 14.6245C6.44357 14.6245 5.61752 14.6245 4.94619 14.5697C4.25124 14.5129 3.62364 14.3918 3.03759 14.0932C2.50059 13.8196 2.02232 13.4505 1.62437 13.0075C1.75674 14.0858 2.03102 14.833 2.59914 15.4012Z" fill="#313131"/>
<path fill-rule="evenodd" clip-rule="evenodd" d="M16.4999 7.5C16.4999 9.60023 16.4999 10.6503 16.0912 11.4525C15.7316 12.1581 15.1579 12.7318 14.4523 13.0913C13.6502 13.5 12.6001 13.5 10.4999 13.5L7.49988 13.5C5.39965 13.5 4.34958 13.5 3.54738 13.0913C2.84178 12.7318 2.2681 12.1581 1.90863 11.4525C1.49988 10.6503 1.49988 9.60022 1.49988 7.5C1.49988 5.39977 1.49988 4.3497 1.90863 3.5475C2.2681 2.8419 2.84178 2.26822 3.54738 1.90875C4.34958 1.5 5.39965 1.5 7.49988 1.5L10.4999 1.5C12.6001 1.5 13.6502 1.5 14.4523 1.90875C15.1579 2.26823 15.7316 2.8419 16.0912 3.5475C16.4999 4.3497 16.4999 5.39978 16.4999 7.5ZM8.60215 4.85227C8.7076 4.74675 8.8507 4.6875 8.99988 4.6875C9.14905 4.6875 9.29215 4.74675 9.3976 4.85227L11.2726 6.72728C11.4923 6.94695 11.4923 7.30305 11.2726 7.52273C11.053 7.7424 10.6968 7.7424 10.4772 7.52273L9.56238 6.60803L9.56238 9.75C9.56238 10.0607 9.31053 10.3125 8.99988 10.3125C8.68923 10.3125 8.43738 10.0607 8.43738 9.75L8.43738 6.60803L7.5226 7.52273C7.30293 7.7424 6.94683 7.7424 6.72715 7.52273C6.50748 7.30305 6.50748 6.94695 6.72715 6.72728L8.60215 4.85227Z" fill="#D5D5D5"/>
<rect x="13" y="13" width="8" height="11" transform="rotate(-180 13 13)" fill="#D5D5D5"/>
<path d="M10.9581 6.665L9.45813 5.165C9.45063 5.1575 9.44313 5.1575 9.44313 5.15C9.39813 5.105 9.33813 5.0675 9.27813 5.0375C9.27063 5.0375 9.27063 5.0375 9.26313 5.0375C9.20313 5.015 9.14313 5.0075 9.08313 5C9.06063 5 9.04563 5 9.02313 5C8.97813 5 8.92563 5.015 8.88063 5.03C8.85813 5.0375 8.84312 5.045 8.82812 5.0525C8.76812 5.0825 8.70813 5.1125 8.66313 5.165L7.16313 6.665C6.94563 6.8825 6.94563 7.2425 7.16313 7.46C7.38063 7.6775 7.74063 7.6775 7.95813 7.46L8.49813 6.92V10.0625C8.49813 10.37 8.75313 10.625 9.06063 10.625C9.36813 10.625 9.62313 10.37 9.62313 10.0625V6.92L10.1631 7.46C10.2756 7.5725 10.4181 7.625 10.5606 7.625C10.7031 7.625 10.8456 7.5725 10.9581 7.46C11.1756 7.2425 11.1756 6.8825 10.9581 6.665Z" fill="#313131"/>
</svg>
