<svg width="134" height="33" viewBox="0 0 134 33" fill="none" xmlns="http://www.w3.org/2000/svg">
<g clip-path="url(#clip0_113_5314)">
<path d="M28.4425 24.8937C27.7618 24.6786 27.1922 24.4004 26.5485 24.0851C25.9789 23.8069 25.4499 23.4545 24.9616 23.0539C23.9776 22.2416 23.1601 21.2364 22.4758 20.1607C22.3685 19.99 22.265 19.8194 22.1651 19.6451C22.1577 19.6339 22.154 19.6228 22.1466 19.6117C21.2329 18.0315 20.6078 16.303 20.5486 14.4632C21.7841 13.8845 23.0159 13.2539 24.1996 12.5343C25.9012 11.4957 27.8025 10.1826 29.075 8.32426C29.837 7.21147 30.1441 5.97998 29.9369 4.86348C29.6965 3.58377 28.9308 2.56 27.7877 1.98135C26.5041 1.33222 24.8543 1.33964 23.4894 2.0036C21.6287 2.90496 19.9197 4.71139 19.0245 6.71442C18.2699 8.40586 17.8667 10.331 17.7816 12.6753C17.4598 12.8199 17.138 12.9646 16.8162 13.1056L16.4019 13.2873C15.6879 13.6026 14.9222 13.9439 14.1306 14.3111C12.577 11.4623 10.0727 9.11063 7.02092 7.87543C4.89393 7.01858 2.46361 6.74409 0 6.89247V9.67445C2.12699 9.52607 4.20589 9.7375 5.97407 10.4571C8.40808 11.4438 10.413 13.3096 11.6633 15.5722C9.13681 16.9744 6.59922 18.8179 4.79775 21.4441C3.86187 22.8054 3.28111 24.3188 3.15164 25.7098C2.98148 27.5978 3.62143 29.2002 5.0049 30.3464C5.92968 31.1142 7.05791 31.5 8.21203 31.5C9.45863 31.5 10.7348 31.0549 11.815 30.1646C13.3723 28.8924 14.3156 27.1341 14.8371 25.8804C15.4919 24.3002 15.8285 22.6311 15.8322 20.9322C15.8359 19.556 15.6214 18.191 15.2107 16.8853C15.958 16.533 16.7237 16.1843 17.5116 15.8393L17.8556 15.6872C17.7372 15.7392 18.1367 17.349 18.1811 17.5196C18.3328 18.1391 18.5326 18.7511 18.7693 19.3409C19.5905 21.3773 20.9111 23.1986 22.5535 24.6452C24.1367 26.0399 26.2526 27.3975 28.3796 27.6609M21.551 7.85318C22.1799 6.43993 23.4117 5.12684 24.6916 4.50738C25.006 4.3553 25.3537 4.27741 25.6903 4.27741C25.99 4.27741 26.2896 4.34046 26.5337 4.46287C26.9073 4.64834 27.1219 4.9525 27.207 5.38649C27.2736 5.76484 27.1219 6.26559 26.789 6.75522C25.8124 8.17959 24.2736 9.23304 22.7532 10.1641C22.0763 10.5795 21.3698 10.9616 20.6484 11.3288C20.8001 10.0009 21.096 8.8584 21.551 7.85318ZM12.2774 24.8084C11.7188 26.166 10.9309 27.3048 10.0653 28.0095C9.1775 28.7329 7.82362 29.0741 6.77677 28.2061C4.75706 26.5295 6.83596 23.3729 7.0838 23.0168C8.50426 20.9507 10.4463 19.4522 12.7138 18.1688C12.9469 19.0627 13.0727 19.99 13.069 20.9136C13.0616 22.2527 12.7952 23.5621 12.2774 24.8084Z" fill="#0000FF"/>
<path d="M41.976 26V7.8H44.056L51.622 20.254H50.27L57.836 7.8H59.916V26H56.926V13.052L57.602 13.234L51.986 22.464H49.906L44.29 13.234L44.966 13.052V26H41.976ZM63.1607 14.17L64.9287 10.868L65.8907 10.608C65.7867 10.816 65.6654 10.9893 65.5267 11.128C65.3881 11.2667 65.2234 11.336 65.0327 11.336C64.6341 11.336 64.2614 11.1713 63.9147 10.842C63.5854 10.4953 63.4207 10.062 63.4207 9.542C63.4207 8.98733 63.6114 8.51933 63.9927 8.138C64.3741 7.73933 64.8334 7.54 65.3707 7.54C65.8907 7.54 66.3414 7.73933 66.7227 8.138C67.1214 8.51933 67.3207 8.98733 67.3207 9.542C67.3207 9.76733 67.2687 10.036 67.1647 10.348C67.0781 10.6427 66.9134 11.024 66.6707 11.492L64.7467 15.028L63.1607 14.17ZM77.742 26.26C76.4247 26.26 75.2027 26.026 74.076 25.558C72.9667 25.0727 71.996 24.4053 71.164 23.556C70.332 22.6893 69.6907 21.6927 69.24 20.566C68.7894 19.422 68.564 18.2 68.564 16.9C68.564 15.6 68.7894 14.3867 69.24 13.26C69.6907 12.116 70.332 11.1193 71.164 10.27C71.996 9.42067 72.9667 8.75333 74.076 8.268C75.2027 7.78267 76.4247 7.54 77.742 7.54C79.2154 7.54 80.4894 7.78267 81.564 8.268C82.6387 8.75333 83.592 9.412 84.424 10.244L82.396 12.272C81.8587 11.6827 81.2 11.2233 80.42 10.894C79.6574 10.5647 78.7647 10.4 77.742 10.4C76.8407 10.4 76.0174 10.556 75.272 10.868C74.5267 11.18 73.8767 11.6307 73.322 12.22C72.7847 12.792 72.3687 13.4767 72.074 14.274C71.7794 15.0713 71.632 15.9467 71.632 16.9C71.632 17.8533 71.7794 18.7287 72.074 19.526C72.3687 20.3233 72.7847 21.0167 73.322 21.606C73.8767 22.178 74.5267 22.62 75.272 22.932C76.0174 23.244 76.8407 23.4 77.742 23.4C78.8514 23.4 79.7874 23.2353 80.55 22.906C81.33 22.5593 81.9887 22.0913 82.526 21.502L84.554 23.53C83.722 24.3793 82.7427 25.0467 81.616 25.532C80.4894 26.0173 79.198 26.26 77.742 26.26ZM86.8321 26V7.28H89.6921V26H86.8321ZM92.9011 26V13.52H95.7611V26H92.9011ZM94.3311 11.232C93.8457 11.232 93.4384 11.0673 93.1091 10.738C92.7971 10.4087 92.6411 10.0013 92.6411 9.516C92.6411 9.03067 92.7971 8.62333 93.1091 8.294C93.4384 7.96467 93.8457 7.8 94.3311 7.8C94.8337 7.8 95.2411 7.96467 95.5531 8.294C95.8651 8.62333 96.0211 9.03067 96.0211 9.516C96.0211 10.0013 95.8651 10.4087 95.5531 10.738C95.2411 11.0673 94.8337 11.232 94.3311 11.232ZM98.9688 26V13.52H101.829V26H98.9688ZM107.263 26V18.564C107.263 17.732 107.003 17.0907 106.483 16.64C105.963 16.172 105.321 15.938 104.559 15.938C104.039 15.938 103.571 16.042 103.155 16.25C102.756 16.458 102.435 16.7613 102.193 17.16C101.95 17.5413 101.829 18.0093 101.829 18.564L100.711 17.94C100.711 16.9867 100.919 16.1633 101.335 15.47C101.751 14.7767 102.314 14.2393 103.025 13.858C103.735 13.4593 104.533 13.26 105.417 13.26C106.301 13.26 107.098 13.4507 107.809 13.832C108.519 14.2133 109.083 14.7507 109.499 15.444C109.915 16.1373 110.123 16.9693 110.123 17.94V26H107.263ZM115.557 26V18.564C115.557 17.732 115.297 17.0907 114.777 16.64C114.257 16.172 113.615 15.938 112.853 15.938C112.35 15.938 111.891 16.042 111.475 16.25C111.059 16.458 110.729 16.7613 110.487 17.16C110.244 17.5413 110.123 18.0093 110.123 18.564L108.511 17.94C108.597 16.9867 108.875 16.1633 109.343 15.47C109.811 14.7767 110.409 14.2393 111.137 13.858C111.882 13.4593 112.697 13.26 113.581 13.26C114.482 13.26 115.297 13.4507 116.025 13.832C116.753 14.2133 117.333 14.7507 117.767 15.444C118.2 16.1373 118.417 16.9693 118.417 17.94V26H115.557ZM127.161 26.26C125.913 26.26 124.787 25.9827 123.781 25.428C122.793 24.856 122.005 24.076 121.415 23.088C120.843 22.1 120.557 20.9907 120.557 19.76C120.557 18.5293 120.843 17.4287 121.415 16.458C121.987 15.47 122.759 14.69 123.729 14.118C124.717 13.546 125.809 13.26 127.005 13.26C128.167 13.26 129.189 13.5287 130.073 14.066C130.975 14.6033 131.677 15.34 132.179 16.276C132.699 17.212 132.959 18.278 132.959 19.474C132.959 19.682 132.942 19.8987 132.907 20.124C132.89 20.332 132.855 20.566 132.803 20.826H122.559V18.486H131.321L130.255 19.422C130.221 18.6593 130.073 18.018 129.813 17.498C129.553 16.978 129.181 16.5793 128.695 16.302C128.227 16.0247 127.647 15.886 126.953 15.886C126.225 15.886 125.593 16.042 125.055 16.354C124.518 16.666 124.102 17.108 123.807 17.68C123.513 18.2347 123.365 18.902 123.365 19.682C123.365 20.462 123.521 21.1467 123.833 21.736C124.145 22.3253 124.587 22.7847 125.159 23.114C125.731 23.426 126.39 23.582 127.135 23.582C127.777 23.582 128.366 23.4693 128.903 23.244C129.458 23.0187 129.926 22.6893 130.307 22.256L132.127 24.102C131.521 24.8127 130.784 25.35 129.917 25.714C129.051 26.078 128.132 26.26 127.161 26.26Z" fill="black"/>
</g>
<defs>
<clipPath id="clip0_113_5314">
<rect width="134" height="33" fill="white"/>
</clipPath>
</defs>
</svg>
