<svg width="60" height="60" viewBox="0 0 60 60" fill="none" xmlns="http://www.w3.org/2000/svg">
<path d="M56.8849 46.7874C55.5237 46.3572 54.3843 45.8008 53.0971 45.1702C51.9577 44.6138 50.8998 43.909 49.9232 43.1078C47.9553 41.4831 46.3203 39.4727 44.9516 37.3213C44.7371 36.98 44.5299 36.6388 44.3302 36.2901C44.3154 36.2679 44.308 36.2456 44.2932 36.2233C42.4658 33.063 41.2155 29.6059 41.0971 25.9263C43.5681 24.769 46.0317 23.5078 48.3992 22.0686C51.8024 19.9914 55.605 17.3652 58.15 13.6485C59.6741 11.4229 60.2881 8.95995 59.8738 6.72695C59.3929 4.16753 57.8615 2.11999 55.5755 0.96269C53.0083 -0.335566 49.7087 -0.320729 46.9787 1.0072C43.2574 2.80992 39.8394 6.42279 38.0491 10.4288C36.5398 13.8117 35.7334 17.662 35.5633 22.3505C34.9196 22.6399 34.276 22.9292 33.6323 23.2111L32.8037 23.5746C31.3759 24.2052 29.8444 24.8877 28.2612 25.6222C25.154 19.9247 20.1454 15.2213 14.0418 12.7509C9.78785 11.0372 4.92722 10.4882 0 10.7849L0 16.3489C4.25398 16.0521 8.41178 16.475 11.9481 17.9142C16.8162 19.8876 20.826 23.6191 23.3266 28.1445C18.2736 30.9487 13.1984 34.6358 9.5955 39.8881C7.72375 42.6108 6.56222 45.6376 6.30329 48.4195C5.96297 52.1956 7.24286 55.4005 10.0098 57.6928C11.8594 59.2285 14.1158 60 16.4241 60C18.9173 60 21.4696 59.1098 23.6299 57.3293C26.7446 54.7847 28.6311 51.2683 29.6743 48.7608C30.9838 45.6005 31.657 42.2621 31.6644 38.8644C31.6718 36.1121 31.2427 33.382 30.4215 30.7707C31.9159 30.0659 33.4474 29.3686 35.0232 28.6786L35.7112 28.3745C35.4745 28.4783 36.2735 31.698 36.3623 32.0393C36.6656 33.2782 37.0651 34.5022 37.5386 35.6818C39.181 39.7546 41.8222 43.3971 45.107 46.2904C48.2734 49.0798 52.5052 51.795 56.7592 52.3217M43.1021 12.7064C44.3598 9.87986 46.8234 7.25367 49.3831 6.01476C50.012 5.7106 50.7074 5.55481 51.3807 5.55481C51.9799 5.55481 52.5792 5.68093 53.0675 5.92574C53.8147 6.29667 54.2438 6.905 54.4139 7.77297C54.5471 8.52967 54.2438 9.53119 53.5779 10.5104C51.6248 13.3592 48.5471 15.4661 45.5065 17.3281C44.1526 18.159 42.7395 18.9231 41.2969 19.6576C41.6002 17.0017 42.1921 14.7168 43.1021 12.7064ZM24.5547 46.6168C23.4376 49.332 21.8618 51.6095 20.1306 53.0191C18.355 54.4657 15.6472 55.1482 13.5535 53.4123C9.51412 50.0591 13.6719 43.7458 14.1676 43.0336C17.0085 38.9015 20.8926 35.9043 25.4277 33.3375C25.8938 35.1254 26.1453 36.98 26.1379 38.8273C26.1231 41.5054 25.5905 44.1242 24.5547 46.6168Z" fill="#0000FF"/>
</svg>
