<svg width="30" height="30" viewBox="0 0 30 30" fill="none" xmlns="http://www.w3.org/2000/svg">
<path d="M28.4425 23.3937C27.7618 23.1786 27.1922 22.9004 26.5485 22.5851C25.9789 22.3069 25.4499 21.9545 24.9616 21.5539C23.9776 20.7416 23.1601 19.7364 22.4758 18.6607C22.3685 18.49 22.265 18.3194 22.1651 18.1451C22.1577 18.1339 22.154 18.1228 22.1466 18.1117C21.2329 16.5315 20.6078 14.803 20.5486 12.9632C21.7841 12.3845 23.0159 11.7539 24.1996 11.0343C25.9012 9.99571 27.8025 8.68262 29.075 6.82426C29.837 5.71147 30.1441 4.47998 29.9369 3.36348C29.6965 2.08377 28.9308 1.06 27.7877 0.481345C26.5041 -0.167783 24.8543 -0.160365 23.4894 0.503601C21.6287 1.40496 19.9197 3.21139 19.0245 5.21442C18.2699 6.90586 17.8667 8.83099 17.7816 11.1753C17.4598 11.3199 17.138 11.4646 16.8162 11.6056L16.4019 11.7873C15.6879 12.1026 14.9222 12.4439 14.1306 12.8111C12.577 9.96233 10.0727 7.61063 7.02092 6.37543C4.89393 5.51858 2.46361 5.24409 0 5.39247V8.17445C2.12699 8.02607 4.20589 8.2375 5.97407 8.95711C8.40808 9.94378 10.413 11.8096 11.6633 14.0722C9.13681 15.4744 6.59922 17.3179 4.79775 19.9441C3.86187 21.3054 3.28111 22.8188 3.15164 24.2098C2.98148 26.0978 3.62143 27.7002 5.0049 28.8464C5.92968 29.6142 7.05791 30 8.21203 30C9.45863 30 10.7348 29.5549 11.815 28.6646C13.3723 27.3924 14.3156 25.6341 14.8371 24.3804C15.4919 22.8002 15.8285 21.1311 15.8322 19.4322C15.8359 18.056 15.6214 16.691 15.2107 15.3853C15.958 15.033 16.7237 14.6843 17.5116 14.3393L17.8556 14.1872C17.7372 14.2392 18.1367 15.849 18.1811 16.0196C18.3328 16.6391 18.5326 17.2511 18.7693 17.8409C19.5905 19.8773 20.9111 21.6986 22.5535 23.1452C24.1367 24.5399 26.2526 25.8975 28.3796 26.1609M21.551 6.35318C22.1799 4.93993 23.4117 3.62684 24.6916 3.00738C25.006 2.8553 25.3537 2.77741 25.6903 2.77741C25.99 2.77741 26.2896 2.84046 26.5337 2.96287C26.9073 3.14834 27.1219 3.4525 27.207 3.88649C27.2736 4.26484 27.1219 4.76559 26.789 5.25522C25.8124 6.67959 24.2736 7.73304 22.7532 8.66407C22.0763 9.07952 21.3698 9.46157 20.6484 9.82879C20.8001 8.50086 21.096 7.3584 21.551 6.35318ZM12.2774 23.3084C11.7188 24.666 10.9309 25.8048 10.0653 26.5095C9.1775 27.2329 7.82362 27.5741 6.77677 26.7061C4.75706 25.0295 6.83596 21.8729 7.0838 21.5168C8.50426 19.4507 10.4463 17.9522 12.7138 16.6688C12.9469 17.5627 13.0727 18.49 13.069 19.4136C13.0616 20.7527 12.7952 22.0621 12.2774 23.3084Z" fill="#0000FF"/>
</svg>
