<svg width="40" height="40" viewBox="0 0 40 40" fill="none" xmlns="http://www.w3.org/2000/svg">
<g filter="url(#filter0_d_115_14)">
<rect x="5" y="5" width="30" height="30" rx="15" fill="white" shape-rendering="crispEdges"/>
<path d="M26.2732 23.9171C25.9555 23.8167 25.6897 23.6868 25.3893 23.5397C25.1235 23.4099 24.8766 23.2454 24.6488 23.0585C24.1896 22.6794 23.8081 22.2103 23.4887 21.7083C23.4386 21.6287 23.3903 21.5491 23.3437 21.4677C23.3403 21.4625 23.3385 21.4573 23.3351 21.4521C22.9087 20.7147 22.617 19.9081 22.5893 19.0495C23.1659 18.7794 23.7407 18.4852 24.2931 18.1493C25.0872 17.6647 25.9745 17.0519 26.5683 16.1847C26.924 15.6654 27.0672 15.0907 26.9706 14.5696C26.8584 13.9724 26.501 13.4947 25.9676 13.2246C25.3686 12.9217 24.5987 12.9252 23.9617 13.235C23.0934 13.6556 22.2959 14.4987 21.8781 15.4334C21.526 16.2227 21.3378 17.1211 21.2981 18.2151C21.1479 18.2826 20.9977 18.3501 20.8475 18.4159L20.6542 18.5007C20.321 18.6479 19.9637 18.8071 19.5943 18.9785C18.8693 17.6491 17.7006 16.5516 16.2764 15.9752C15.2838 15.5753 14.1497 15.4472 13 15.5165V16.8147C13.9926 16.7455 14.9627 16.8442 15.7879 17.18C16.9238 17.6404 17.8594 18.5111 18.4429 19.567C17.2638 20.2214 16.0796 21.0817 15.2389 22.3072C14.8022 22.9425 14.5312 23.6488 14.4708 24.2979C14.3914 25.179 14.69 25.9268 15.3356 26.4617C15.7672 26.82 16.2937 27 16.8323 27C17.414 27 18.0096 26.7923 18.5137 26.3768C19.2404 25.7831 19.6806 24.9626 19.924 24.3775C20.2295 23.6401 20.3866 22.8612 20.3884 22.0684C20.3901 21.4262 20.29 20.7891 20.0984 20.1798C20.4471 20.0154 20.8044 19.8527 21.1721 19.6917L21.3326 19.6207C21.2774 19.6449 21.4638 20.3962 21.4845 20.4758C21.5553 20.7649 21.6485 21.0505 21.759 21.3258C22.1422 22.2761 22.7585 23.126 23.525 23.8011C24.2638 24.452 25.2512 25.0855 26.2438 25.2084M23.0571 15.9648C23.3506 15.3053 23.9255 14.6925 24.5227 14.4034C24.6695 14.3325 24.8317 14.2961 24.9888 14.2961C25.1286 14.2961 25.2685 14.3255 25.3824 14.3827C25.5568 14.4692 25.6569 14.6112 25.6966 14.8137C25.7277 14.9903 25.6569 15.2239 25.5015 15.4524C25.0458 16.1171 24.3277 16.6088 23.6182 17.0432C23.3023 17.2371 22.9726 17.4154 22.6359 17.5868C22.7067 16.9671 22.8448 16.4339 23.0571 15.9648ZM18.7294 23.8773C18.4688 24.5108 18.1011 25.0422 17.6971 25.3711C17.2828 25.7087 16.651 25.8679 16.1625 25.4629C15.22 24.6804 16.1901 23.2074 16.3058 23.0412C16.9687 22.077 17.8749 21.3777 18.9331 20.7788C19.0419 21.1959 19.1006 21.6287 19.0989 22.0597C19.0954 22.6846 18.9711 23.2956 18.7294 23.8773Z" fill="#0000FF"/>
</g>
<defs>
<filter id="filter0_d_115_14" x="0" y="0" width="40" height="40" filterUnits="userSpaceOnUse" color-interpolation-filters="sRGB">
<feFlood flood-opacity="0" result="BackgroundImageFix"/>
<feColorMatrix in="SourceAlpha" type="matrix" values="0 0 0 0 0 0 0 0 0 0 0 0 0 0 0 0 0 0 127 0" result="hardAlpha"/>
<feOffset/>
<feGaussianBlur stdDeviation="2.5"/>
<feComposite in2="hardAlpha" operator="out"/>
<feColorMatrix type="matrix" values="0 0 0 0 0 0 0 0 0 0 0 0 0 0 0 0 0 0 0.1 0"/>
<feBlend mode="normal" in2="BackgroundImageFix" result="effect1_dropShadow_115_14"/>
<feBlend mode="normal" in="SourceGraphic" in2="effect1_dropShadow_115_14" result="shape"/>
</filter>
</defs>
</svg>
