<svg width="170" height="170" viewBox="0 0 170 170" fill="none" xmlns="http://www.w3.org/2000/svg">
<g filter="url(#filter0_d_114_5379)">
<rect y="84.8528" width="120" height="120" rx="40" transform="rotate(-45 0 84.8528)" fill="white" shape-rendering="crispEdges"/>
<path d="M111.885 101.9C110.524 101.47 109.384 100.913 108.097 100.283C106.958 99.7264 105.9 99.0216 104.923 98.2204C102.955 96.5957 101.32 94.5853 99.9516 92.4339C99.7371 92.0926 99.5299 91.7514 99.3302 91.4027C99.3154 91.3804 99.308 91.3582 99.2932 91.3359C97.4658 88.1756 96.2155 84.7185 96.0971 81.0389C98.5681 79.8816 101.032 78.6204 103.399 77.1812C106.802 75.104 110.605 72.4778 113.15 68.7611C114.674 66.5355 115.288 64.0725 114.874 61.8395C114.393 59.2801 112.862 57.2326 110.575 56.0753C108.008 54.777 104.709 54.7919 101.979 56.1198C98.2574 57.9225 94.8394 61.5354 93.0491 65.5414C91.5398 68.9243 90.7334 72.7746 90.5633 77.4631C89.9196 77.7525 89.276 78.0418 88.6323 78.3237L87.8037 78.6872C86.3759 79.3178 84.8444 80.0003 83.2612 80.7347C80.154 75.0372 75.1454 70.3338 69.0418 67.8634C64.7878 66.1497 59.9272 65.6008 55 65.8975V71.4615C59.254 71.1647 63.4118 71.5876 66.9481 73.0268C71.8162 75.0001 75.826 78.7317 78.3266 83.2571C73.2736 86.0613 68.1984 89.7483 64.5955 95.0007C62.7237 97.7234 61.5622 100.75 61.3033 103.532C60.963 107.308 62.2429 110.513 65.0098 112.805C66.8594 114.341 69.1158 115.113 71.4241 115.113C73.9173 115.113 76.4696 114.222 78.6299 112.442C81.7446 109.897 83.6311 106.381 84.6743 103.873C85.9838 100.713 86.657 97.3747 86.6644 93.977C86.6718 91.2247 86.2427 88.4946 85.4215 85.8833C86.9159 85.1785 88.4474 84.4811 90.0232 83.7912L90.7112 83.487C90.4745 83.5909 91.2735 86.8106 91.3623 87.1518C91.6656 88.3907 92.0651 89.6148 92.5386 90.7944C94.181 94.8672 96.8222 98.5097 100.107 101.403C103.273 104.192 107.505 106.908 111.759 107.434M98.1021 67.8189C99.3598 64.9924 101.823 62.3663 104.383 61.1273C105.012 60.8232 105.707 60.6674 106.381 60.6674C106.98 60.6674 107.579 60.7935 108.067 61.0383C108.815 61.4093 109.244 62.0176 109.414 62.8856C109.547 63.6423 109.244 64.6438 108.578 65.623C106.625 68.4718 103.547 70.5787 100.506 72.4407C99.1526 73.2716 97.7395 74.0357 96.2969 74.7702C96.6002 72.1143 97.1921 69.8294 98.1021 67.8189ZM79.5547 101.729C78.4376 104.445 76.8618 106.722 75.1306 108.132C73.355 109.578 70.6472 110.261 68.5535 108.525C64.5141 105.172 68.6719 98.8584 69.1676 98.1462C72.0085 94.0141 75.8926 91.0169 80.4277 88.4501C80.8938 90.238 81.1453 92.0926 81.1379 93.9399C81.1231 96.618 80.5905 99.2368 79.5547 101.729Z" fill="#0000FF"/>
</g>
<defs>
<filter id="filter0_d_114_5379" x="-10" y="-8.99997" width="189.706" height="189.706" filterUnits="userSpaceOnUse" color-interpolation-filters="sRGB">
<feFlood flood-opacity="0" result="BackgroundImageFix"/>
<feColorMatrix in="SourceAlpha" type="matrix" values="0 0 0 0 0 0 0 0 0 0 0 0 0 0 0 0 0 0 127 0" result="hardAlpha"/>
<feOffset dy="1"/>
<feGaussianBlur stdDeviation="5"/>
<feComposite in2="hardAlpha" operator="out"/>
<feColorMatrix type="matrix" values="0 0 0 0 0 0 0 0 0 0 0 0 0 0 0 0 0 0 0.1 0"/>
<feBlend mode="normal" in2="BackgroundImageFix" result="effect1_dropShadow_114_5379"/>
<feBlend mode="normal" in="SourceGraphic" in2="effect1_dropShadow_114_5379" result="shape"/>
</filter>
</defs>
</svg>
