<svg width="99" height="98" viewBox="0 0 99 98" fill="none" xmlns="http://www.w3.org/2000/svg">
<path d="M93.0553 76.3177C90.8285 75.6158 88.9647 74.7081 86.8589 73.6794C84.9951 72.7717 83.2645 71.622 81.667 70.3149C78.4478 67.6645 75.7731 64.3848 73.5342 60.8751C73.1832 60.3183 72.8443 59.7616 72.5176 59.1928C72.4934 59.1565 72.4813 59.1202 72.4571 59.0839C69.4678 53.9283 67.4225 48.2886 67.2288 42.2858C71.271 40.3978 75.3011 38.3404 79.1739 35.9925C84.741 32.6039 90.9616 28.3196 95.1249 22.2563C97.618 18.6256 98.6225 14.6076 97.9447 10.9648C97.1581 6.78944 94.6529 3.44917 90.9132 1.5612C86.7137 -0.556721 81.316 -0.532516 76.8502 1.63381C70.7627 4.5747 65.1714 10.4686 62.2426 17.0039C59.7738 22.5226 58.4546 28.8037 58.1762 36.4524C57.1233 36.9244 56.0704 37.3964 55.0175 37.8563L53.662 38.4493C51.3263 39.478 48.8211 40.5914 46.2312 41.7896C41.1482 32.4949 32.9548 24.822 22.9704 20.7919C16.0115 17.9963 8.0602 17.1007 0 17.5848V26.6616C6.95888 26.1775 13.7604 26.8673 19.5454 29.2152C27.5088 32.4344 34.0683 38.5219 38.1589 45.9044C29.8929 50.4791 21.5907 56.494 15.6968 65.0625C12.6349 69.5041 10.7348 74.4418 10.3112 78.9802C9.75453 85.1404 11.8482 90.3686 16.3745 94.1082C19.4001 96.6134 23.0914 97.8721 26.8673 97.8721C30.9458 97.8721 35.1212 96.4198 38.6551 93.5152C43.7502 89.3641 46.8363 83.6276 48.5427 79.537C50.6848 74.3813 51.7862 68.9353 51.7983 63.3924C51.8104 58.9024 51.1084 54.4487 49.7651 50.1886C52.2097 49.0389 54.7149 47.9013 57.2928 46.7758L58.4183 46.2796C58.031 46.449 59.3381 51.7014 59.4833 52.2582C59.9795 54.2793 60.633 56.2761 61.4076 58.2004C64.0943 64.8446 68.4149 70.7869 73.7883 75.5069C78.9682 80.0574 85.8907 84.4868 92.8496 85.3461M70.5086 20.7193C72.566 16.1083 76.5961 11.824 80.7835 9.80293C81.8122 9.30673 82.9498 9.05258 84.0512 9.05258C85.0314 9.05258 86.0117 9.25832 86.8105 9.6577C88.0329 10.2628 88.7348 11.2552 89.0131 12.6712C89.231 13.9056 88.7348 15.5395 87.6456 17.137C84.4505 21.7843 79.4159 25.2214 74.4419 28.2591C72.2271 29.6146 69.9156 30.8611 67.5556 32.0592C68.0518 27.7266 69.02 23.999 70.5086 20.7193ZM40.1679 76.0394C38.3404 80.4688 35.7626 84.1843 32.9306 86.4837C30.0261 88.8437 25.5966 89.9571 22.1716 87.1252C15.5637 81.6549 22.3652 71.3557 23.1761 70.1939C27.8234 63.4529 34.1772 58.5635 41.5959 54.3761C42.3584 57.2927 42.7699 60.3183 42.7578 63.3318C42.7336 67.7008 41.8622 71.973 40.1679 76.0394Z" fill="white"/>
</svg>
