<svg width="20" height="20" viewBox="0 0 20 20" fill="none" xmlns="http://www.w3.org/2000/svg">
<path fill-rule="evenodd" clip-rule="evenodd" d="M11.1231 1.06905C11.594 1.11117 12.0366 1.25488 12.4167 1.53834C12.6977 1.74798 12.893 2.0046 13.0598 2.28252C13.2144 2.54006 13.3701 2.86116 13.5466 3.22541L13.9022 3.959H17.5003C17.9606 3.959 18.3337 4.3321 18.3337 4.79233C18.3337 5.25257 17.9606 5.62566 17.5003 5.62566C12.5002 5.62566 7.50048 5.62566 2.50033 5.62566C2.04009 5.62566 1.66699 5.25257 1.66699 4.79233C1.66699 4.3321 2.04009 3.959 2.50033 3.959H6.17513L6.47163 3.30855C6.64376 2.93088 6.79535 2.59826 6.94763 2.33136C7.11188 2.04347 7.30633 1.77705 7.59083 1.5588C7.97559 1.26363 8.42708 1.11399 8.90858 1.07015C9.27108 1.03715 9.63649 1.0417 10.0003 1.04228C10.426 1.04296 10.8087 1.04093 11.1231 1.06905ZM8.00679 3.959H12.0501C11.8612 3.5695 11.7403 3.32264 11.6308 3.14025C11.4706 2.8733 11.2786 2.75629 10.9746 2.7291C10.7585 2.70977 10.4769 2.709 10.0291 2.709C9.57008 2.709 9.28116 2.7098 9.05966 2.72995C8.74791 2.75834 8.55358 2.87981 8.39524 3.1573C8.2915 3.33914 8.17855 3.58255 8.00679 3.959Z" fill="#707070"/>
<path fill-rule="evenodd" clip-rule="evenodd" d="M16.3188 13.047C16.2548 14.0914 16.2041 14.9201 16.1002 15.582C15.9935 16.261 15.8228 16.8263 15.4814 17.3208C15.1691 17.7732 14.767 18.155 14.3007 18.442C13.7909 18.7556 13.2217 18.8928 12.5442 18.9584L7.43949 18.9583C6.76125 18.8925 6.19143 18.7551 5.68133 18.4409C5.21469 18.1535 4.81245 17.771 4.50023 17.3178C4.15894 16.8225 3.9888 16.2563 3.88298 15.5765C3.77978 14.9135 3.73019 14.0836 3.66768 13.0378L3.125 3.95837H16.875L16.3188 13.047ZM6.875 10.2637C6.875 9.91854 7.15482 9.63871 7.5 9.63871H12.5C12.8452 9.63871 13.125 9.91854 13.125 10.2637C13.125 10.6089 12.8452 10.8887 12.5 10.8887H7.5C7.15482 10.8887 6.875 10.6089 6.875 10.2637ZM8.75 12.9037C8.40483 12.9037 8.125 13.1835 8.125 13.5287C8.125 13.8739 8.40483 14.1537 8.75 14.1537H11.25C11.5952 14.1537 11.875 13.8739 11.875 13.5287C11.875 13.1835 11.5952 12.9037 11.25 12.9037H8.75Z" fill="#707070"/>
</svg>
