<svg width="20" height="20" viewBox="0 0 20 20" fill="none" xmlns="http://www.w3.org/2000/svg">
<path fill-rule="evenodd" clip-rule="evenodd" d="M4.16658 14.655C4.01021 14.8114 3.92236 15.0235 3.92236 15.2446C3.92236 15.4658 4.01021 15.6778 4.16658 15.8342C4.32294 15.9906 4.53502 16.0784 4.75616 16.0784C4.9773 16.0784 5.18938 15.9906 5.34574 15.8342L9.99991 11.1784L14.6549 15.8334C14.8121 15.9852 15.0226 16.0692 15.2411 16.0673C15.4596 16.0654 15.6686 15.9777 15.8231 15.8232C15.9776 15.6687 16.0652 15.4597 16.0671 15.2412C16.069 15.0227 15.985 14.8122 15.8332 14.655L11.1782 10L15.8332 5.34503C15.9895 5.18866 16.0772 4.97663 16.0772 4.75557C16.0771 4.53451 15.9892 4.32254 15.8328 4.16628C15.6765 4.01003 15.4644 3.92229 15.2434 3.92236C15.0223 3.92244 14.8103 4.01033 14.6541 4.1667L9.99991 8.8217L5.34491 4.1667C5.18774 4.0149 4.97724 3.9309 4.75874 3.9328C4.54025 3.9347 4.33123 4.02234 4.17673 4.17685C4.02222 4.33136 3.93458 4.54037 3.93268 4.75886C3.93078 4.97736 4.01478 5.18786 4.16658 5.34503L8.82158 10L4.16658 14.655Z" fill="#707070"/>
</svg>
