<svg width="42" height="42" viewBox="0 0 42 42" fill="none" xmlns="http://www.w3.org/2000/svg">
<path d="M0 21C0 9.40202 9.40202 0 21 0C32.598 0 42 9.40202 42 21C42 32.598 32.598 42 21 42C9.40202 42 0 32.598 0 21Z" fill="#F0F0F0"/>
<path d="M13.0855 14.7357L12.595 14.3902L12.595 14.3902L13.0855 14.7357ZM14.0534 13.7371L13.6936 13.257L13.6936 13.257L14.0534 13.7371ZM27.9465 13.7371L27.5867 14.2172L27.5867 14.2172L27.9465 13.7371ZM28.9145 14.7357L29.405 14.3902L29.405 14.3902L28.9145 14.7357ZM28.9145 27.2643L28.4239 26.9188L28.4239 26.9188L28.9145 27.2643ZM27.9465 28.2629L27.5867 27.7828L27.5867 27.7828L27.9465 28.2629ZM14.0534 28.2629L13.6936 28.743L13.6936 28.743L14.0534 28.2629ZM13.0855 27.2643L13.5761 26.9188L13.5761 26.9188L13.0855 27.2643ZM25.7737 19.6428C26.0213 19.4226 26.0436 19.0433 25.8233 18.7957C25.6031 18.5481 25.2239 18.5259 24.9763 18.7461L25.375 19.1944L25.7737 19.6428ZM24.3018 20.1489L24.7005 20.5973L24.7005 20.5972L24.3018 20.1489ZM24.3018 21.8511L24.7005 21.4028L24.7005 21.4027L24.3018 21.8511ZM24.9763 23.2539C25.2239 23.4741 25.6031 23.4519 25.8233 23.2043C26.0436 22.9567 26.0213 22.5774 25.7737 22.3572L25.375 22.8056L24.9763 23.2539ZM12.25 21H12.85C12.85 19.2945 12.8508 18.062 12.9512 17.106C13.0505 16.1602 13.2418 15.5559 13.5761 15.0811L13.0855 14.7357L12.595 14.3902C12.0938 15.102 11.8673 15.9373 11.7577 16.9807C11.6492 18.0139 11.65 19.3204 11.65 21H12.25ZM13.0855 14.7357L13.5761 15.0811C13.8101 14.7489 14.0928 14.4575 14.4133 14.2172L14.0534 13.7371L13.6936 13.257C13.2713 13.5735 12.9007 13.9561 12.595 14.3902L13.0855 14.7357ZM14.0534 13.7371L14.4133 14.2172C14.8683 13.8761 15.4462 13.6808 16.3568 13.579C17.2797 13.4759 18.4707 13.475 20.125 13.475V12.875V12.275C18.4983 12.275 17.2285 12.2741 16.2234 12.3865C15.206 12.5002 14.3886 12.736 13.6936 13.257L14.0534 13.7371ZM20.125 12.875V13.475H21.875V12.875V12.275H20.125V12.875ZM21.875 12.875V13.475C23.5293 13.475 24.7203 13.4759 25.6432 13.579C26.5538 13.6808 27.1317 13.8761 27.5867 14.2172L27.9465 13.7371L28.3064 13.257C27.6114 12.736 26.794 12.5002 25.7765 12.3865C24.7715 12.2741 23.5017 12.275 21.875 12.275V12.875ZM27.9465 13.7371L27.5867 14.2172C27.9073 14.4575 28.1899 14.7489 28.4239 15.0811L28.9145 14.7357L29.405 14.3902C29.0993 13.9561 28.7287 13.5735 28.3064 13.257L27.9465 13.7371ZM28.9145 14.7357L28.4239 15.0811C28.7582 15.5559 28.9495 16.1602 29.0488 17.106C29.1492 18.062 29.15 19.2945 29.15 21H29.75H30.35C30.35 19.3204 30.3508 18.0139 30.2423 16.9807C30.1327 15.9373 29.9062 15.102 29.405 14.3902L28.9145 14.7357ZM29.75 21H29.15C29.15 22.7055 29.1492 23.938 29.0488 24.894C28.9495 25.8398 28.7582 26.4441 28.4239 26.9188L28.9145 27.2643L29.405 27.6097C29.9062 26.898 30.1327 26.0627 30.2423 25.0193C30.3508 23.9861 30.35 22.6796 30.35 21H29.75ZM28.9145 27.2643L28.4239 26.9188C28.1899 27.2511 27.9073 27.5425 27.5867 27.7828L27.9465 28.2629L28.3064 28.743C28.7287 28.4265 29.0993 28.0439 29.405 27.6097L28.9145 27.2643ZM27.9465 28.2629L27.5867 27.7828C27.1317 28.1239 26.5538 28.3192 25.6432 28.421C24.7203 28.5241 23.5293 28.525 21.875 28.525V29.125V29.725C23.5017 29.725 24.7715 29.7259 25.7765 29.6135C26.794 29.4998 27.6114 29.264 28.3064 28.743L27.9465 28.2629ZM21.875 29.125V28.525H20.125V29.125V29.725H21.875V29.125ZM20.125 29.125V28.525C18.4707 28.525 17.2797 28.5241 16.3568 28.421C15.4462 28.3192 14.8683 28.1239 14.4133 27.7828L14.0534 28.2629L13.6936 28.743C14.3886 29.264 15.206 29.4998 16.2234 29.6135C17.2285 29.7259 18.4983 29.725 20.125 29.725V29.125ZM14.0534 28.2629L14.4133 27.7828C14.0928 27.5426 13.8101 27.2511 13.5761 26.9188L13.0855 27.2643L12.595 27.6097C12.9007 28.0439 13.2713 28.4265 13.6936 28.743L14.0534 28.2629ZM13.0855 27.2643L13.5761 26.9188C13.2418 26.4441 13.0505 25.8398 12.9512 24.894C12.8508 23.938 12.85 22.7055 12.85 21H12.25H11.65C11.65 22.6796 11.6492 23.9861 11.7577 25.0193C11.8673 26.0627 12.0938 26.898 12.595 27.6097L13.0855 27.2643ZM18.8125 13.3264H18.2125V28.6736H18.8125H19.4125V13.3264H18.8125ZM25.375 19.1944L24.9763 18.7461L23.9031 19.7005L24.3018 20.1489L24.7005 20.5972L25.7737 19.6428L25.375 19.1944ZM24.3018 20.1489L23.9031 19.7005C23.6906 19.8894 23.4844 20.0711 23.3388 20.2407C23.1845 20.4205 23.025 20.6686 23.025 21H23.625H24.225C24.225 21.0821 24.1782 21.1052 24.2496 21.0221C24.3296 20.9288 24.4618 20.8095 24.7005 20.5973L24.3018 20.1489ZM23.625 21H23.025C23.025 21.3314 23.1845 21.5795 23.3388 21.7593C23.4844 21.9289 23.6906 22.1106 23.9031 22.2995L24.3018 21.8511L24.7005 21.4027C24.4618 21.1905 24.3296 21.0712 24.2496 20.9779C24.1782 20.8948 24.225 20.9179 24.225 21H23.625ZM24.3018 21.8511L23.9031 22.2995L24.9763 23.2539L25.375 22.8056L25.7737 22.3572L24.7005 21.4028L24.3018 21.8511Z" fill="black"/>
</svg>
