<svg width="20" height="20" viewBox="0 0 20 20" fill="none" xmlns="http://www.w3.org/2000/svg">
<path fill-rule="evenodd" clip-rule="evenodd" d="M10.9029 1.875H9.09752C7.97127 1.87498 7.05557 1.87498 6.31613 1.95961C5.54475 2.04789 4.87996 2.23565 4.29022 2.66733C3.70047 3.09899 3.32663 3.67148 3.01903 4.37297C2.72414 5.04543 2.46107 5.90818 2.13744 6.9695L1.13893 10.2439L1.07173 10.5066C1.06489 10.5333 1.06147 10.5467 1.05958 10.5603C1.05769 10.5739 1.05734 10.5878 1.05666 10.6153L1.04199 11.2015C1.04198 12.6036 1.04198 13.7143 1.15297 14.589C1.26703 15.4879 1.50685 16.2228 2.05016 16.8225C2.14799 16.9305 2.25184 17.033 2.36122 17.1296C2.96857 17.666 3.71287 17.9028 4.62333 18.0154C5.50923 18.125 6.63413 18.125 8.05409 18.125H11.9464C13.3664 18.125 14.4914 18.125 15.3773 18.0154C16.2878 17.9028 17.0321 17.666 17.6394 17.1296C17.7488 17.033 17.8527 16.9305 17.9505 16.8225C18.4938 16.2228 18.7336 15.4879 18.8477 14.589C18.9587 13.7143 18.9587 12.6037 18.9587 11.2017L18.9438 10.6152C18.9431 10.5877 18.9427 10.5739 18.9408 10.5603C18.9389 10.5467 18.9355 10.5333 18.9287 10.5067L18.8615 10.2439L17.863 6.96952C17.5393 5.90819 17.2763 5.04543 16.9813 4.37297C16.6738 3.67148 16.2999 3.09899 15.7102 2.66733C15.1204 2.23565 14.4557 2.04789 13.6843 1.95961C12.9448 1.87498 12.0293 1.87498 10.9029 1.875ZM16.9843 9.66583L16.3162 7.47493C15.975 6.35623 15.738 5.58336 15.485 5.00648C15.2405 4.44889 15.0136 4.15413 14.7374 3.95196C14.4611 3.74978 14.1089 3.6206 13.4958 3.55043C12.8614 3.47783 12.0408 3.47657 10.8536 3.47657H9.14635C7.95917 3.47657 7.13858 3.47783 6.50423 3.55043C5.8911 3.6206 5.5389 3.74978 5.26268 3.95195C4.98647 4.15413 4.75949 4.44889 4.51498 5.00648C4.26203 5.58336 4.025 6.35623 3.68386 7.47493L3.01175 9.679C2.92286 9.97042 2.87842 10.1162 2.95349 10.2158C3.02856 10.3154 3.18272 10.3153 3.49103 10.3149L16.506 10.3018C16.8138 10.3015 16.9676 10.3013 17.0425 10.2018C17.1173 10.1023 17.073 9.95675 16.9843 9.66583ZM10.0003 14.1667C10.0003 13.7064 10.3734 13.3333 10.8337 13.3333H10.843C11.3033 13.3333 11.6763 13.7064 11.6763 14.1667C11.6763 14.6269 11.3033 15 10.843 15H10.8337C10.3734 15 10.0003 14.6269 10.0003 14.1667ZM14.1577 14.1667C14.1577 13.7064 14.5308 13.3333 14.991 13.3333H15.0003C15.4606 13.3333 15.8337 13.7064 15.8337 14.1667C15.8337 14.6269 15.4606 15 15.0003 15H14.991C14.5308 15 14.1577 14.6269 14.1577 14.1667Z" fill="#707070"/>
</svg>
