<svg width="16" height="16" viewBox="0 0 16 16" fill="none" xmlns="http://www.w3.org/2000/svg">
<g clip-path="url(#clip0_137_5452)">
<path d="M14.667 8.00016C14.667 11.682 11.6822 14.6668 8.00028 14.6668C4.31838 14.6668 1.33362 11.682 1.33362 8.00016C1.33362 4.31826 4.31838 1.3335 8.00028 1.3335C11.6822 1.3335 14.667 4.31826 14.667 8.00016Z" stroke="#3A81E4" stroke-width="1.25" stroke-linecap="round" stroke-linejoin="round"/>
<path d="M14.667 8.00016C14.667 11.682 11.6822 14.6668 8.00028 14.6668C4.31838 14.6668 1.33362 11.682 1.33362 8.00016C1.33362 4.31826 4.31838 1.3335 8.00028 1.3335C11.6822 1.3335 14.667 4.31826 14.667 8.00016Z" stroke="black" stroke-opacity="0.08" stroke-width="1.25" stroke-linecap="round" stroke-linejoin="round"/>
<path d="M9.41398 6.58594L6.11413 9.88579M6.58556 6.11445C6.58556 6.11445 9.45061 5.67966 9.88538 6.11444C10.3202 6.54926 9.88539 9.41427 9.88539 9.41427" stroke="#3A81E4" stroke-width="1.25" stroke-linecap="round" stroke-linejoin="round"/>
<path d="M9.41398 6.58594L6.11413 9.88579M6.58556 6.11445C6.58556 6.11445 9.45061 5.67966 9.88538 6.11444C10.3202 6.54926 9.88539 9.41427 9.88539 9.41427" stroke="black" stroke-opacity="0.08" stroke-width="1.25" stroke-linecap="round" stroke-linejoin="round"/>
</g>
<defs>
<clipPath id="clip0_137_5452">
<rect width="16" height="16" fill="white"/>
</clipPath>
</defs>
</svg>
