<svg width="20" height="20" viewBox="0 0 20 20" fill="none" xmlns="http://www.w3.org/2000/svg">
<path d="M10 1.45837C10.656 1.45837 11.2344 1.68317 11.8433 2.05001C12.4316 2.4045 13.1028 2.9265 13.9388 3.5767L13.9648 3.59705L15.6315 4.89343L16.3583 5.46309C17.0189 5.99391 17.4832 6.43355 17.7645 7.00851L17.8304 7.15417C18.1378 7.88709 18.125 8.73521 18.125 9.99112V12.1314C18.125 13.466 18.125 14.5315 18.0127 15.367C17.9038 16.1768 17.6804 16.8525 17.1892 17.3975L17.0874 17.5041C16.5248 18.0667 15.8139 18.3133 14.9503 18.4294C14.1148 18.5417 13.0493 18.5417 11.7147 18.5417H8.28533C6.95067 18.5417 5.88519 18.5417 5.04966 18.4294C4.23993 18.3205 3.56414 18.0971 3.01922 17.6059L2.91261 17.5041C2.35003 16.9415 2.10341 16.2306 1.98731 15.367C1.90206 14.7329 1.8816 13.9664 1.87664 13.0502L1.87501 12.0834V9.99112C1.87501 8.65146 1.86052 7.77527 2.23553 7.00851C2.61061 6.24191 3.31114 5.71582 4.36851 4.89343L6.03517 3.59705L6.64064 3.12748C7.21731 2.68347 7.71088 2.31867 8.15675 2.05001C8.7656 1.68316 9.34401 1.45839 10 1.45837ZM10 10.8334C9.0796 10.8334 8.33335 11.5796 8.33335 12.5C8.33335 13.4205 9.0796 14.1667 10 14.1667C10.9205 14.1667 11.6667 13.4205 11.6667 12.5C11.6667 11.5795 10.9205 10.8334 10 10.8334Z" fill="#707070"/>
</svg>
