<svg width="20" height="20" viewBox="0 0 20 20" fill="none" xmlns="http://www.w3.org/2000/svg">
<path d="M9.99675 1.04163C10.8712 1.04163 11.5599 1.70207 11.9996 2.59322L13.468 5.55426C13.5125 5.6459 13.6181 5.77494 13.7767 5.89299C13.9352 6.01092 14.0905 6.07597 14.1926 6.09313L16.8506 6.5384C17.8107 6.69973 18.6155 7.17037 18.8767 7.98988C19.1377 8.80871 18.7553 9.65963 18.0648 10.3513L18.0642 10.352L15.9992 12.434C15.9174 12.5165 15.8257 12.672 15.7682 12.8745C15.7112 13.0756 15.7061 13.2589 15.732 13.3772L15.7323 13.3789L16.3231 15.9545C16.5682 17.0264 16.4869 18.0894 15.7309 18.6451C14.9722 19.2027 13.9356 18.9555 12.9937 18.3946L10.5022 16.9075C10.3975 16.845 10.2178 16.7943 10.0009 16.7943C9.78558 16.7943 9.60216 16.8443 9.49066 16.9091L9.48908 16.91L7.0024 18.3943C6.06171 18.9572 5.02628 19.2 4.26759 18.6418C3.51207 18.086 3.42678 17.025 3.67259 15.9539L4.26325 13.3789L4.26361 13.3772C4.28951 13.2589 4.28444 13.0756 4.22733 12.8745C4.16983 12.672 4.07816 12.5165 3.99631 12.434L1.92987 10.3505C1.24387 9.65879 0.862673 8.80863 1.12162 7.991C1.38132 7.171 2.18452 6.69979 3.14527 6.53834L5.8011 6.09345L5.80194 6.09331C5.89931 6.07642 6.05225 6.01209 6.2104 5.89386C6.36884 5.77541 6.47466 5.64608 6.51926 5.55426L6.52151 5.54968L7.98801 2.59243L7.9886 2.59127C8.4325 1.70086 9.12333 1.04163 9.99675 1.04163Z" fill="#707070"/>
</svg>
