<svg width="42" height="30" viewBox="0 0 42 30" fill="none" xmlns="http://www.w3.org/2000/svg">
<path fill-rule="evenodd" clip-rule="evenodd" d="M23.625 26.5676H35.8752C37.0866 26.5675 38.2707 26.1949 39.2778 25.497C40.2849 24.7991 41.0698 23.8073 41.5333 22.6468C41.9968 21.4864 42.118 20.2095 41.8816 18.9777C41.6452 17.7458 41.0618 16.6143 40.2052 15.7263C39.3486 14.8382 38.2573 14.2334 37.0692 13.9884C35.8811 13.7434 34.6497 13.8693 33.5306 14.3499C32.4114 14.8306 31.4549 15.6446 30.7819 16.6889C30.109 17.7332 29.7498 18.961 29.7498 20.217C29.7486 21.9009 29.1029 23.5155 27.9545 24.7062C26.8062 25.8969 25.249 26.5664 23.625 26.5676Z" fill="#009EFF"/>
<path d="M23.625 26.5676C29.7864 26.5676 34.7812 21.3886 34.7812 15C34.7812 8.61146 29.7864 3.4325 23.625 3.4325C17.4636 3.4325 12.4688 8.61146 12.4688 15C12.4688 21.3886 17.4636 26.5676 23.625 26.5676Z" fill="#0053FF"/>
<path fill-rule="evenodd" clip-rule="evenodd" d="M23.625 26.5676H7.875C6.31748 26.5676 4.79492 26.0887 3.49989 25.1915C2.20485 24.2943 1.19549 23.019 0.599452 21.527C0.00341213 20.035 -0.152539 18.3932 0.151319 16.8093C0.455178 15.2254 1.2052 13.7705 2.30654 12.6285C3.40788 11.4866 4.81107 10.7089 6.33867 10.3938C7.86627 10.0788 9.44967 10.2405 10.8886 10.8585C12.3276 11.4765 13.5575 12.5231 14.4228 13.8659C15.2881 15.2086 15.75 16.7873 15.75 18.4023C15.7517 20.5673 16.582 22.6431 18.0585 24.174C19.5349 25.7049 21.537 26.5658 23.625 26.5676Z" fill="#2D00FF"/>
</svg>
